<svg width="186" height="83" viewBox="0 0 186 83" fill="none" xmlns="http://www.w3.org/2000/svg">
<path d="M185.733 25.9217L136.935 44.4998L139.772 38.3665L73.6436 61.0137L77.3038 53.425L0.512866 83L58.1728 68.4984L53.4456 77.6167L124.931 50.9301L120.849 58.8752L185.733 25.9217ZM174.826 3.43049C175.175 3.43049 175.501 3.40079 175.501 2.98497C175.501 2.64341 175.189 2.584 174.9 2.584H174.345V3.43049H174.826ZM174.337 4.96753H173.915V2.23501H174.96C175.597 2.23501 175.915 2.47262 175.915 3.00725C175.915 3.49732 175.612 3.71265 175.212 3.7572L175.982 4.9601H175.523L174.797 3.77948H174.33L174.337 4.96753ZM174.834 5.5764C175.901 5.5764 176.753 4.73734 176.753 3.59384C176.753 2.47262 175.901 1.62614 174.834 1.62614C173.752 1.62614 172.907 2.47262 172.907 3.59384C172.907 4.73734 173.752 5.5764 174.834 5.5764ZM172.433 3.59384C172.433 2.23502 173.537 1.2326 174.841 1.2326C176.13 1.2326 177.234 2.23502 177.234 3.59384C177.234 4.96753 176.13 5.97737 174.841 5.97737C173.53 5.97737 172.433 4.96753 172.433 3.59384ZM43.5763 11.3013L35.1147 18.4593C35.1147 18.4593 31.7509 14.6724 31.4841 14.3754C31.1878 14.6278 24.2674 20.5087 24.2674 20.5087L25.2528 10.7444L0.498047 31.654L17.4063 23.5159L13.0644 60.0484C13.0644 60.0484 18.2436 63.8873 18.6733 64.1769C19.1104 60.6944 23.2893 27.2286 23.519 25.4094L23.5339 25.3351L28.4315 21.1918L29.4762 22.2239L25.5344 55.5487C25.5344 55.5487 30.7951 59.4841 31.1359 59.7143C31.1729 59.3875 34.6998 29.1814 35.5371 21.9789L40.4051 17.8504L41.4424 18.8751L37.6265 51.3756L43.228 55.5115L47.807 15.9644L43.5763 11.3013ZM57.3207 18.6078L51.4747 19.6028L50.7486 25.3351L56.5872 24.2288L57.3207 18.6078ZM88.7291 21.0136L86.3804 39.2279L85.0837 40.6238L82.8831 38.7972L85.0689 21.667L79.2229 23.0927L76.9704 40.9208L75.244 43.2227L73.3991 41.5891L75.5923 23.6496L69.724 24.8822L67.7605 41.1956L65.3303 44.5072L63.6113 43.1113L67.4049 12.4151L61.6774 13.3433L58.1431 42.8291L55.2313 46.8462L53.7864 45.6433L56.2093 27.6667L50.3633 28.8696L47.6514 49.705L52.801 53.7517L57.869 46.8908L63.1667 51.138L68.2644 44.188L73.7325 48.9476L79.1266 41.797L83.5055 45.6656L91.0853 37.4087L93.4119 19.9963L88.7291 21.0136ZM102.6 32.9906L100.243 35.8939L98.9837 34.8024L100.903 19.6399L104.081 21.3255L102.6 32.9906ZM153.976 11.2939L156.74 14.5165L153.309 16.4099L153.976 11.2939ZM168.669 8.27921L171.211 11.3236L168.062 13.1131L168.669 8.27921ZM169.047 20.2339L167.365 18.8157L167.713 16.0386L175.575 11.5835L169.232 3.71265L163.445 8.7767L162.09 19.7142L154.384 23.9614L152.546 22.4541L152.924 19.5137L161.475 14.7912L154.584 6.46001L148.301 11.8211L146.974 22.2016L144.181 24.9119L139.787 16.2094L149.627 7.19512L145.159 7.84854L137.742 14.1749L139.513 0L134.156 0.74253L131.163 25.0158L127.917 28.5874L127.154 27.9414L129.103 12.5413L123.331 13.8705L121.531 27.8003L118.967 30.9115L117.87 29.9611L119.804 14.6872L113.988 15.8456L112.187 30.1319L109.498 33.5624L108.32 32.5228L110.328 16.5733L104.526 17.8207L104.393 19.0607L100.34 17.1005L94.6492 24.3847L93.0044 37.3938L98.5095 42.0866L103.563 35.5598L107.905 39.2576L112.647 33.1614L116.722 36.733L121.197 30.8595L125.458 34.5722L131.229 28.283L135.623 31.7729L136.942 21.1027L141.566 30.6071L147.701 24.6223L151.679 27.9785L163.534 21.4146L166.565 24.0357L177.457 17.6574L177.753 15.311L169.047 20.2339Z" fill="black"/>
</svg>
