<svg width="125" height="84" viewBox="0 0 125 84" fill="none" xmlns="http://www.w3.org/2000/svg">
<g clip-path="url(#clip0_95_66674)">
<path d="M124.497 0.565918H0V83.5659H124.497V0.565918Z" fill="black"/>
<path d="M2.625 23.1114V25.7121L122.757 8.10315V5.50244L2.625 23.1114Z" fill="white"/>
<path d="M2.625 75.4806V78.0813L122.757 60.4362V57.8354L2.625 75.4806Z" fill="white"/>
<path d="M76.0829 28.0054C77.0943 28.0054 77.913 27.1204 77.913 26.0247C77.913 24.9291 77.0943 24.0381 76.0829 24.0381C75.0715 24.0381 74.2588 24.9291 74.2588 26.0247C74.2588 27.1204 75.0775 28.0054 76.0829 28.0054V28.0054Z" fill="white"/>
<path d="M42.9348 34.6517C43.3683 34.5374 44.1208 34.4772 44.5001 34.4772C44.8794 34.4772 45.2526 34.8203 45.2526 35.5126C45.2526 36.2049 43.7957 40.4732 43.4767 41.8037C43.1516 43.1763 42.9349 44.4104 43.8018 44.4526C44.9335 44.5128 46.1737 42.6104 46.7697 41.3943C47.3597 40.1301 49.0333 34.5915 49.1416 34.1099C49.9845 33.845 51.8387 33.6103 52.3203 33.7307C52.2661 34.2123 50.5925 39.3836 50.3758 40.3047C50.159 41.2258 49.5149 43.1823 50.1109 43.2847C51.0741 43.4412 51.7604 42.2793 52.3203 41.2799C52.844 40.3408 54.6922 34.0618 54.909 33.2972C55.5531 33.0323 56.9558 32.8035 57.7685 32.9721C57.5578 33.7788 56.0468 39.3776 55.7217 40.6418C55.3966 41.8579 55.7217 42.8933 56.5344 42.9535C57.3411 43.0077 58.0455 42.1167 58.6354 40.5876C59.3819 38.6431 59.2856 36.4337 59.2314 35.5728C59.1953 35.025 59.2254 33.3213 59.7191 32.5507C60.5498 31.2383 61.6395 31.4791 61.8743 32.4423C62.1813 33.7126 61.7178 35.8859 61.5492 36.4397C61.4709 36.6926 63.0121 36.8009 63.1084 36.3253C64.4329 29.6911 67.5332 23.1171 68.5506 21.9853C69.2731 21.1907 70.3868 19.9324 72.1086 20.8535C73.9206 21.8168 74.2638 23.7131 73.6136 25.8141C72.1507 30.5761 68.5145 35.934 66.8229 37.1922C66.0162 37.7762 65.6369 38.3662 65.5285 39.0886C65.4202 39.7869 66.1245 41.2498 66.6603 41.3401C67.9547 41.5689 69.7908 40.1903 70.3326 38.6311C70.8443 37.1561 72.5902 31.2503 72.9153 31.0336C73.7822 30.4557 75.6123 30.4978 75.5581 31.0336C75.5039 31.5754 73.8845 37.409 73.6678 38.3602C73.5052 39.1247 73.2945 39.7267 73.6678 39.7809C74.0471 39.8351 74.3721 39.7809 74.8056 39.0284C75.7387 37.3909 78.7368 31.7861 79.1702 31.1901C79.5976 30.6122 80.7355 29.0951 81.9696 29.2577C83.2158 29.4142 83.2158 30.3834 83.6432 31.1901C85.1543 29.1493 86.4486 28.3426 87.466 28.451C88.2245 28.5292 89.248 28.8302 89.5189 30.0162C89.7838 31.1901 88.7664 34.7119 88.2245 36.0966C87.6827 37.5053 87.9055 38.4625 88.4413 38.4083C88.9771 38.3602 89.7898 36.7949 90.0005 36.0966C90.2112 35.3982 91.2587 32.7072 91.6139 31.8403C93.432 27.5299 97.0621 27.0483 97.8688 27.1025C98.6755 27.1566 99.4341 27.6443 99.9217 28.0175C99.9759 27.855 100.403 27.0483 100.458 26.8857C101.318 26.8315 103.155 26.8857 103.155 26.8857C102.294 29.2577 100.837 34.4772 100.837 35.627C103.1 33.5621 106.658 25.5372 106.712 25.3205C106.767 25.1038 107.007 24.3211 107.465 24.4596C108.133 24.6583 109.247 24.887 109.409 25.6456C109.572 26.4041 110.096 33.3032 110.162 34.3688C110.216 35.2297 110.782 34.7962 111.24 34.2183C112.215 33.0143 112.967 31.8463 113.503 31.1962C114.202 31.2564 114.689 32.1173 114.527 32.2918C112.209 37.8906 107.736 39.4438 105.581 39.1307C103.919 38.8839 102.884 37.716 102.348 37.3066C100.891 38.4685 99.4883 39.7869 98.8983 40.8886C98.6274 44.3502 96.7792 48.6005 96.3096 49.5878C94.1183 54.1751 92.3182 54.8133 90.1088 53.6875C88.0861 52.64 88.5617 49.8286 90.753 46.5235C93.1731 42.8572 95.6053 41.4003 95.822 41.1174C96.0387 40.8344 96.3096 39.8411 96.3578 39.6726C95.7678 40.2505 94.5216 40.7622 93.1791 40.6478C91.7223 40.5334 91.1263 39.498 90.8614 38.318C89.6694 40.6478 88.2667 41.3401 86.864 41.4003C85.4673 41.4545 84.6064 40.3107 84.6064 38.318C84.6064 36.3253 85.9549 32.5507 86.0573 31.8945C84.9255 31.6838 84.3295 33.1046 83.9562 33.6765C82.8967 35.3621 81.4759 40.8284 81.1027 41.3401C80.4525 41.6893 79.104 41.6893 78.2431 41.286C78.3515 39.4438 80.5067 33.5139 80.7776 32.5507C80.29 33.0985 77.3401 38.3722 76.0337 40.5334C74.8477 42.478 73.4992 43.0137 72.3132 42.9596C71.344 42.9114 70.8082 41.7555 70.5373 41.2318C68.653 44.1756 66.1185 44.1395 65.4683 43.9409C62.994 43.1161 62.8255 39.7869 62.8255 38.7515C62.5004 38.8659 61.3144 38.9802 60.9412 38.8117C58.7318 45.8071 57.1665 45.5543 55.7638 45.7228C54.3611 45.8613 53.5002 44.9161 53.1751 44.1455C52.6394 45.0486 51.2367 46.367 49.6714 46.4212C48.1062 46.4753 47.5162 45.4399 46.9202 44.7476C45.361 47.2881 43.7957 47.3784 42.8265 47.3784C41.8572 47.3784 41.2612 46.9389 40.3462 46.0178C38.2451 49.1965 34.4705 49.0399 33.5013 46.1262C32.532 43.2425 34.1153 40.0819 34.7956 38.8057C37.4806 33.6584 41.3154 34.7119 42.0198 35.6872C42.074 35.4584 42.5014 34.7601 42.9348 34.6517V34.6517ZM71.3982 25.7539C72.0604 23.9419 71.2116 23.5205 70.8022 24.0262C69.5921 25.5192 67.3526 31.9487 66.865 34.0136C68.2677 33.0383 70.7962 27.3854 71.3982 25.7539V25.7539ZM97.4354 29.8537C96.4661 29.5226 95.0634 31.4189 94.3049 33.1467C93.5223 34.9347 92.7216 37.3849 93.8233 37.6016C95.2802 37.9387 96.5564 35.5849 97.1103 34.2664C97.7003 32.8637 98.5672 30.2269 97.4354 29.8537ZM104.28 34.0136C103.925 34.4591 103.702 35.314 104.334 35.9882C105.039 36.7468 105.683 36.9033 106.11 36.5481C107.634 35.1936 106.977 30.7687 106.49 29.962C106.436 30.5038 104.792 33.3393 104.28 34.0136ZM95.0634 45.1509C93.9317 46.1262 91.9932 48.9918 91.6681 49.9068C91.343 50.8219 91.036 51.737 91.5597 51.9537C92.3724 52.2788 92.854 51.5263 93.3417 50.5028C93.8233 49.4674 94.7444 46.8727 95.0634 45.1449V45.1509ZM40.4545 37.5053C39.6719 37.2645 38.1368 38.1133 37.1675 40.7983C36.1381 43.6459 36.2525 45.2051 37.1134 45.4339C37.9742 45.6626 39.5274 44.2118 40.3462 41.5689C41.0325 39.3053 41.478 37.8244 40.4545 37.5053Z" fill="white"/>
<path d="M84.3361 42.5021C78.2738 44.4948 72.6991 45.9456 67.7024 47.0172C67.4496 46.9751 67.2027 46.939 66.9499 46.9028C61.8147 46.2707 55.7945 46.8125 51.7008 48.4561C50.7436 48.8594 49.8767 49.2989 49.1061 49.7684C47.3482 49.9069 45.8372 49.9972 44.585 50.0634C37.7641 50.4427 32.96 48.9497 31.8102 47.559C30.9914 46.6018 29.9981 43.2727 29.7092 42.0927C29.5707 41.5509 29.1312 41.0031 28.2703 40.666C32.4062 40.082 34.7781 37.5716 35.6029 35.1093C36.3915 32.7555 36.3554 29.3541 33.2129 27.0303C29.9078 24.5861 24.1766 26.5607 22.5211 27.4216C14.5082 31.6056 11.5644 42.478 11.0587 46.1624C10.4808 49.5457 11.8172 54.5244 15.327 55.0903C18.8548 55.6682 20.4742 53.2782 21.4435 51.0628C22.4488 48.7691 24.1706 42.5683 24.6763 41.1416C25.3927 41.1416 25.6094 41.7737 25.8984 42.1529C26.9218 43.4112 27.0362 49.6902 30.2811 51.7732C33.3453 53.7719 40.4913 53.6454 42.1408 53.6575C43.2244 53.6575 44.3562 53.6274 45.5181 53.5611C45.3977 53.9464 45.3014 54.3558 45.3435 54.723C45.2773 56.2582 46.1502 57.7391 47.8961 59.0214C49.4673 60.0509 51.3878 61.0563 54.0065 61.592C57.7932 62.471 62.4769 62.5673 66.4863 61.9352C73.0423 60.972 78.0089 57.9197 78.4424 54.8133C78.924 52.4595 76.8591 50.0032 73.0122 48.438C72.8617 48.3718 72.7052 48.3116 72.5486 48.2453C77.2323 46.8186 81.3862 45.3075 84.4023 43.965C84.7094 43.4834 84.6913 42.5683 84.3361 42.4961V42.5021ZM25.8261 38.3482C25.8984 37.6198 26.8315 34.9769 27.2589 34.116C27.6924 33.2551 28.3245 32.4123 28.9687 31.8946C28.4148 31.3829 26.0429 31.7862 23.7793 35.2117C23.1893 36.1027 22.5211 37.4211 21.1485 41.7074C19.7578 46.1262 18.3672 52.7785 16.2661 52.7183C14.3216 52.6641 13.8219 49.1905 15.327 43.965C16.838 38.7034 19.216 34.3087 20.2214 32.8819C21.4675 31.0999 24.893 27.4035 28.7038 27.6203C32.5085 27.837 32.2978 32.0932 31.5814 34.11C31.0215 35.6933 30.1426 38.4746 25.8322 38.3422L25.8261 38.3482ZM75.8778 51.3517C77.7019 53.1999 77.4731 55.7645 75.2336 57.6308C72.4704 60.1773 66.4984 61.7907 60.4481 61.6282C56.0052 61.5318 51.8694 60.5686 49.4673 58.8589C48.2753 58.0763 47.4626 57.1612 47.0412 56.2762V56.2883C45.9696 54.0066 47.4566 51.4059 51.0868 49.6059C53.4647 48.3356 57.1611 47.4567 60.7672 47.3243C67.594 46.9089 73.3975 48.6969 75.8778 51.3578V51.3517Z" fill="white"/>
<path d="M51.0448 53.2782C51.1713 53.1398 51.3157 53.0013 51.4482 52.8568C52.0923 52.1645 53.0977 51.4902 54.0308 50.8702C55.277 50.1177 56.7941 49.3531 58.5339 48.8474C61.4356 47.9865 65.5895 47.6193 68.3107 48.6066C68.9909 48.8354 69.5147 49.1604 69.906 49.5036C70.7428 50.3404 70.3395 51.3638 69.0873 52.1163C67.7387 52.8749 65.8785 53.2722 63.7715 53.3746C63.5909 53.4047 63.3982 53.3384 63.2658 53.3926C63.3982 53.4227 63.5367 53.4468 63.6932 53.4588C63.8618 53.5311 64.1026 53.5612 64.2109 53.6515H64.235C65.5715 54.1813 65.6437 55.0722 66.3661 55.7585C67.3956 56.5472 69.7495 56.5953 71.1943 57.1492C71.5254 57.3358 71.4291 57.5646 71.1943 57.7392C71.1161 57.8415 70.9355 57.9499 70.7007 58.0161C69.4003 58.1546 68.3107 57.9017 67.1307 57.7392C65.6196 57.4803 64.0785 57.083 63.639 56.3305C63.1273 55.6201 63.037 54.8856 62.441 54.1873C62.2183 54.0067 61.8871 53.7538 61.2972 53.7418C61.1346 53.7599 60.9179 53.7298 60.8457 53.8201C59.6657 55.4515 58.9433 57.2275 56.3065 58.5218C55.885 58.6964 55.4937 58.8529 55.0181 58.9432V58.9312C53.8803 59.2021 52.3151 58.9733 51.4422 58.6061C49.6421 57.7452 49.6542 56.505 49.9371 55.289C49.9371 55.289 50.1779 54.2294 51.0268 53.2782H51.0448ZM52.586 57.5887C52.586 57.5887 52.6161 57.6429 52.6342 57.6669C52.7425 57.8174 52.875 57.9499 53.0917 58.0944C53.2783 58.2027 53.6877 58.3231 54.1452 58.275C55.0482 58.1606 55.6442 57.673 55.9452 57.2937C56.9687 55.8248 57.7272 54.1933 58.8349 52.7364C59.1179 52.4535 59.3707 52.1404 59.756 51.8334C60.6891 51.105 62.0136 50.4066 63.8497 50.226C63.9822 50.226 64.0905 50.1658 64.1989 50.226C63.6691 50.4548 63.1995 50.6595 62.8383 50.9304C62.2845 51.5023 61.9112 52.1404 61.6704 52.7304C63.3019 52.6883 64.8972 52.5618 65.9929 51.9719C67.2692 51.2795 67.8712 50.3043 67.0284 49.5277C66.8297 49.2568 66.4203 49.1183 65.9327 48.9798C63.6149 48.5464 61.3152 49.1604 59.5814 49.8166C59.16 49.9671 58.5339 50.2802 58.0643 50.509C56.0295 51.6769 54.4402 53.1398 53.495 54.5967C53.0134 55.289 52.6101 56.0234 52.4656 56.7278C52.4596 56.7579 52.4535 56.782 52.4475 56.8061C52.4475 56.8061 52.3994 57.2395 52.598 57.5947L52.586 57.5887Z" fill="white"/>
<path d="M102.451 39.9075C102.078 39.9075 101.759 40.0459 101.5 40.3229C101.241 40.5998 101.108 40.8888 101.108 41.2801C101.108 41.6292 101.235 41.9664 101.5 42.2433C101.759 42.4781 102.078 42.6165 102.451 42.6165C102.824 42.6165 103.143 42.4781 103.402 42.2433C103.667 41.9724 103.793 41.6292 103.793 41.2801C103.793 40.8888 103.661 40.5998 103.402 40.3229C103.137 40.0459 102.818 39.9075 102.451 39.9075ZM103.27 42.1048C103.047 42.3456 102.77 42.4179 102.451 42.4179C102.126 42.4179 101.855 42.3396 101.626 42.1048C101.403 41.864 101.289 41.5751 101.289 41.2801C101.289 40.9429 101.403 40.6841 101.632 40.4613C101.861 40.2205 102.132 40.1001 102.451 40.1001C102.77 40.1001 103.047 40.2205 103.27 40.4613C103.498 40.6841 103.607 40.9429 103.607 41.2801C103.607 41.5751 103.492 41.87 103.27 42.1048Z" fill="white"/>
<path d="M103.035 41.9061C103.035 41.864 103.035 41.8279 103.035 41.7917V41.6774C103.035 41.5991 103.005 41.5148 102.957 41.4787C102.903 41.3944 102.812 41.3462 102.698 41.3222C102.794 41.3041 102.867 41.28 102.915 41.2499C103.011 41.1837 103.059 41.0814 103.059 40.9429C103.059 40.7442 102.981 40.66 102.824 40.5937C102.746 40.5576 102.608 40.5396 102.421 40.5396H101.903V42.0085H102.162V41.4305H102.367C102.511 41.4305 102.602 41.4486 102.662 41.4847C102.758 41.5088 102.806 41.6172 102.806 41.7917V41.9242V41.9723C102.806 41.9784 102.806 41.9844 102.806 41.9904C102.806 41.9964 102.806 42.0024 102.806 42.0085H103.053L103.041 41.9904C103.041 41.9904 103.029 41.9543 103.029 41.9061H103.035ZM102.65 41.2138C102.596 41.2379 102.511 41.2439 102.403 41.2499H102.168V40.7021H102.391C102.535 40.7021 102.638 40.7141 102.71 40.7442C102.77 40.7864 102.806 40.8586 102.806 40.973C102.806 41.0934 102.752 41.1717 102.65 41.2198V41.2138Z" fill="white"/>
<path d="M87.0519 74.626C86.7991 74.3129 86.4619 74.1564 86.0465 74.1564C85.9021 74.1564 85.7576 74.1925 85.6191 74.2587C85.4806 74.325 85.4084 74.4454 85.4084 74.6139C85.4084 74.7524 85.4806 74.8547 85.6251 74.9149C85.7696 74.9812 85.9502 75.0353 86.167 75.0835C86.3837 75.1317 86.6185 75.1858 86.8713 75.246C87.1242 75.3002 87.3589 75.3905 87.5757 75.5169C87.7924 75.6434 87.979 75.8059 88.1175 76.0166C88.262 76.2273 88.3342 76.5103 88.3342 76.8594C88.3342 77.2086 88.2559 77.5156 88.0994 77.7444C87.9429 77.9732 87.7382 78.1658 87.4914 78.3043C87.2446 78.4428 86.9676 78.5451 86.6606 78.5993C86.3536 78.6595 86.0465 78.6836 85.7455 78.6836C85.3542 78.6836 84.9569 78.6294 84.5535 78.515C84.1502 78.4066 83.8131 78.208 83.5361 77.925L84.5897 76.7691C84.7522 76.9678 84.9328 77.1183 85.1255 77.2207C85.3241 77.323 85.5529 77.3772 85.8118 77.3772C86.0104 77.3772 86.191 77.3471 86.3536 77.2929C86.5161 77.2387 86.5944 77.1304 86.5944 76.9798C86.5944 76.8293 86.5221 76.727 86.3837 76.6548C86.2392 76.5825 86.0586 76.5223 85.8419 76.4742C85.6251 76.426 85.3843 76.3718 85.1375 76.3116C84.8847 76.2514 84.6499 76.1671 84.4331 76.0527C84.2164 75.9384 84.0298 75.7758 83.8913 75.5651C83.7529 75.3544 83.6806 75.0775 83.6806 74.7223C83.6806 74.3972 83.7468 74.1142 83.8853 73.8734C84.0177 73.6387 84.1984 73.446 84.4151 73.2895C84.6318 73.133 84.8847 73.0246 85.1736 72.9524C85.4566 72.8801 85.7455 72.844 86.0405 72.844C86.4078 72.844 86.781 72.8982 87.1603 73.0065C87.5395 73.1149 87.8586 73.3015 88.1175 73.5785L87.0519 74.6199V74.626Z" fill="white"/>
<path d="M91.9588 74.1444H90.9474V76.4682C90.9474 76.6067 90.9534 76.7331 90.9655 76.8415C90.9775 76.9498 91.0136 77.0522 91.0618 77.1365C91.1099 77.2208 91.1822 77.281 91.2845 77.3291C91.3869 77.3773 91.5193 77.3953 91.6819 77.3953C91.7661 77.3953 91.8745 77.3893 92.007 77.3713C92.1394 77.3532 92.2417 77.3171 92.314 77.2508V78.5392C92.1394 78.5994 91.9588 78.6415 91.7722 78.6656C91.5855 78.6836 91.3989 78.6957 91.2243 78.6957C90.9594 78.6957 90.7186 78.6716 90.4959 78.6114C90.2731 78.5572 90.0805 78.4669 89.9119 78.3465C89.7434 78.2261 89.6169 78.0696 89.5206 77.8769C89.4243 77.6843 89.3822 77.4495 89.3822 77.1786V74.1384H88.3828V72.9043H89.3822V71.6521H90.9414V72.9043H91.9528V74.1384L91.9588 74.1444Z" fill="white"/>
<path d="M92.8193 77.7384C92.8193 77.618 92.8434 77.4976 92.8856 77.3892C92.9277 77.2809 92.9939 77.1845 93.0782 77.1003C93.1625 77.016 93.2588 76.9558 93.3672 76.9136C93.4755 76.8655 93.5959 76.8474 93.7224 76.8474C93.8488 76.8474 93.9632 76.8715 94.0776 76.9136C94.1859 76.9618 94.2883 77.022 94.3665 77.1003C94.4508 77.1845 94.511 77.2748 94.5592 77.3892C94.6073 77.5036 94.6254 77.618 94.6254 77.7384C94.6254 77.8588 94.6013 77.9792 94.5592 78.0876C94.511 78.1959 94.4508 78.2923 94.3665 78.3765C94.2822 78.4608 94.1859 78.521 94.0776 78.5692C93.9632 78.6173 93.8488 78.6354 93.7224 78.6354C93.5959 78.6354 93.4816 78.6113 93.3672 78.5692C93.2528 78.521 93.1565 78.4608 93.0782 78.3765C92.9939 78.2983 92.9337 78.202 92.8856 78.0876C92.8374 77.9792 92.8193 77.8588 92.8193 77.7384Z" fill="white"/>
<path d="M101.103 73.464C101.103 73.1449 101.163 72.868 101.283 72.6332C101.404 72.3984 101.572 72.1997 101.783 72.0372C101.994 71.8807 102.24 71.7603 102.523 71.682C102.806 71.6037 103.107 71.5676 103.426 71.5676C103.746 71.5676 104.047 71.6037 104.329 71.682C104.612 71.7603 104.859 71.8807 105.064 72.0372C105.275 72.1937 105.443 72.3924 105.564 72.6332C105.684 72.874 105.75 73.1509 105.75 73.464C105.75 73.8432 105.648 74.1623 105.443 74.4272C105.239 74.6921 104.95 74.8847 104.576 74.9931V75.0112C104.998 75.1195 105.317 75.3182 105.54 75.6072C105.762 75.8961 105.877 76.2573 105.877 76.6848C105.877 77.0159 105.81 77.3109 105.678 77.5637C105.546 77.8166 105.365 78.0273 105.136 78.1898C104.907 78.3584 104.649 78.4788 104.354 78.5631C104.059 78.6473 103.752 78.6895 103.432 78.6895C103.113 78.6895 102.806 78.6473 102.511 78.5631C102.216 78.4788 101.958 78.3524 101.729 78.1898C101.5 78.0212 101.319 77.8166 101.187 77.5637C101.055 77.3109 100.988 77.0159 100.988 76.6848C100.988 76.2573 101.097 75.8961 101.325 75.6072C101.548 75.3182 101.867 75.1195 102.289 75.0112V74.9931C101.915 74.8847 101.626 74.6921 101.422 74.4272C101.217 74.1623 101.115 73.8372 101.115 73.464H101.103ZM102.457 76.4801C102.457 76.7209 102.548 76.9256 102.722 77.0941C102.897 77.2627 103.137 77.347 103.426 77.347C103.715 77.347 103.956 77.2627 104.137 77.0941C104.317 76.9256 104.402 76.7209 104.402 76.4801C104.402 76.2393 104.311 76.0286 104.137 75.86C103.962 75.6914 103.721 75.6072 103.426 75.6072C103.131 75.6072 102.897 75.6914 102.722 75.86C102.548 76.0286 102.457 76.2393 102.457 76.4801ZM102.578 73.6687C102.578 73.8854 102.656 74.066 102.812 74.2165C102.969 74.367 103.174 74.4392 103.432 74.4392C103.691 74.4392 103.896 74.367 104.053 74.2165C104.209 74.066 104.287 73.8854 104.287 73.6687C104.287 73.4519 104.209 73.2834 104.053 73.1329C103.896 72.9824 103.691 72.9101 103.432 72.9101C103.174 72.9101 102.969 72.9884 102.812 73.1329C102.656 73.2834 102.578 73.458 102.578 73.6687Z" fill="white"/>
<path d="M106.485 73.464C106.485 73.1449 106.546 72.868 106.666 72.6332C106.786 72.3984 106.955 72.1997 107.166 72.0372C107.376 71.8807 107.623 71.7603 107.906 71.682C108.189 71.6037 108.49 71.5676 108.809 71.5676C109.128 71.5676 109.429 71.6037 109.712 71.682C109.995 71.7603 110.242 71.8807 110.447 72.0372C110.657 72.1937 110.826 72.3924 110.946 72.6332C111.067 72.874 111.133 73.1509 111.133 73.464C111.133 73.8432 111.031 74.1623 110.826 74.4272C110.621 74.6921 110.332 74.8847 109.959 74.9931V75.0112C110.381 75.1195 110.7 75.3182 110.922 75.6072C111.145 75.8961 111.259 76.2573 111.259 76.6848C111.259 77.0159 111.193 77.3109 111.061 77.5637C110.928 77.8166 110.748 78.0273 110.519 78.1898C110.29 78.3584 110.031 78.4788 109.736 78.5631C109.441 78.6473 109.134 78.6895 108.815 78.6895C108.496 78.6895 108.189 78.6473 107.894 78.5631C107.599 78.4788 107.34 78.3524 107.112 78.1898C106.883 78.0212 106.702 77.8166 106.57 77.5637C106.437 77.3109 106.371 77.0159 106.371 76.6848C106.371 76.2573 106.479 75.8961 106.708 75.6072C106.931 75.3182 107.25 75.1195 107.671 75.0112V74.9931C107.298 74.8847 107.009 74.6921 106.805 74.4272C106.6 74.1623 106.498 73.8372 106.498 73.464H106.485ZM107.84 76.4801C107.84 76.7209 107.93 76.9256 108.105 77.0941C108.279 77.2627 108.52 77.347 108.809 77.347C109.098 77.347 109.339 77.2627 109.52 77.0941C109.7 76.9256 109.785 76.7209 109.785 76.4801C109.785 76.2393 109.694 76.0286 109.52 75.86C109.345 75.6914 109.104 75.6072 108.809 75.6072C108.514 75.6072 108.279 75.6914 108.105 75.86C107.93 76.0286 107.84 76.2393 107.84 76.4801ZM107.96 73.6687C107.96 73.8854 108.039 74.066 108.195 74.2165C108.352 74.367 108.556 74.4392 108.815 74.4392C109.074 74.4392 109.279 74.367 109.435 74.2165C109.592 74.066 109.67 73.8854 109.67 73.6687C109.67 73.4519 109.592 73.2834 109.435 73.1329C109.279 72.9824 109.074 72.9101 108.815 72.9101C108.556 72.9101 108.352 72.9884 108.195 73.1329C108.039 73.2834 107.96 73.458 107.96 73.6687Z" fill="white"/>
<path d="M115.179 73.0244H111.741V71.6819H116.834V72.9642L114.053 78.575H112.331L115.179 73.0244V73.0244Z" fill="white"/>
<path d="M79.8039 77.1724V75.7697H82.82V74.367H79.8039V73.0908H83.0126V71.676H77.7991V73.0908H78.2687V77.2025H77.751V78.5751H83.1752V77.1724H79.8039Z" fill="white"/>
<path d="M99.6764 77.2024V71.6819H98.2977L96.9854 72.7294L97.8222 73.6866L98.2616 73.3194V77.2024H97.3706V78.575H100.585V77.2024H99.6764Z" fill="white"/>
<path d="M87.0519 74.626C86.7991 74.3129 86.4619 74.1564 86.0465 74.1564C85.9021 74.1564 85.7576 74.1925 85.6191 74.2587C85.4806 74.325 85.4084 74.4454 85.4084 74.6139C85.4084 74.7524 85.4806 74.8547 85.6251 74.9149C85.7696 74.9812 85.9502 75.0353 86.167 75.0835C86.3837 75.1317 86.6185 75.1858 86.8713 75.246C87.1242 75.3002 87.3589 75.3905 87.5757 75.5169C87.7924 75.6434 87.979 75.8059 88.1175 76.0166C88.262 76.2273 88.3342 76.5103 88.3342 76.8594C88.3342 77.2086 88.2559 77.5156 88.0994 77.7444C87.9429 77.9732 87.7382 78.1658 87.4914 78.3043C87.2446 78.4428 86.9676 78.5451 86.6606 78.5993C86.3536 78.6595 86.0465 78.6836 85.7455 78.6836C85.3542 78.6836 84.9569 78.6294 84.5535 78.515C84.1502 78.4066 83.8131 78.208 83.5361 77.925L84.5897 76.7691C84.7522 76.9678 84.9328 77.1183 85.1255 77.2207C85.3241 77.323 85.5529 77.3772 85.8118 77.3772C86.0104 77.3772 86.191 77.3471 86.3536 77.2929C86.5161 77.2387 86.5944 77.1304 86.5944 76.9798C86.5944 76.8293 86.5221 76.727 86.3837 76.6548C86.2392 76.5825 86.0586 76.5223 85.8419 76.4742C85.6251 76.426 85.3843 76.3718 85.1375 76.3116C84.8847 76.2514 84.6499 76.1671 84.4331 76.0527C84.2164 75.9384 84.0298 75.7758 83.8913 75.5651C83.7529 75.3544 83.6806 75.0775 83.6806 74.7223C83.6806 74.3972 83.7468 74.1142 83.8853 73.8734C84.0177 73.6387 84.1984 73.446 84.4151 73.2895C84.6318 73.133 84.8847 73.0246 85.1736 72.9524C85.4566 72.8801 85.7455 72.844 86.0405 72.844C86.4078 72.844 86.781 72.8982 87.1603 73.0065C87.5395 73.1149 87.8586 73.3015 88.1175 73.5785L87.0519 74.6199V74.626Z" fill="white"/>
<path d="M91.9588 74.1444H90.9474V76.4682C90.9474 76.6067 90.9534 76.7331 90.9655 76.8415C90.9775 76.9498 91.0136 77.0522 91.0618 77.1365C91.1099 77.2208 91.1822 77.281 91.2845 77.3291C91.3869 77.3773 91.5193 77.3953 91.6819 77.3953C91.7661 77.3953 91.8745 77.3893 92.007 77.3713C92.1394 77.3532 92.2417 77.3171 92.314 77.2508V78.5392C92.1394 78.5994 91.9588 78.6415 91.7722 78.6656C91.5855 78.6836 91.3989 78.6957 91.2243 78.6957C90.9594 78.6957 90.7186 78.6716 90.4959 78.6114C90.2731 78.5572 90.0805 78.4669 89.9119 78.3465C89.7434 78.2261 89.6169 78.0696 89.5206 77.8769C89.4243 77.6843 89.3822 77.4495 89.3822 77.1786V74.1384H88.3828V72.9043H89.3822V71.6521H90.9414V72.9043H91.9528V74.1384L91.9588 74.1444Z" fill="white"/>
<path d="M92.8193 77.7384C92.8193 77.618 92.8434 77.4976 92.8856 77.3892C92.9277 77.2809 92.9939 77.1845 93.0782 77.1003C93.1625 77.016 93.2588 76.9558 93.3672 76.9136C93.4755 76.8655 93.5959 76.8474 93.7224 76.8474C93.8488 76.8474 93.9632 76.8715 94.0776 76.9136C94.1859 76.9618 94.2883 77.022 94.3665 77.1003C94.4508 77.1845 94.511 77.2748 94.5592 77.3892C94.6073 77.5036 94.6254 77.618 94.6254 77.7384C94.6254 77.8588 94.6013 77.9792 94.5592 78.0876C94.511 78.1959 94.4508 78.2923 94.3665 78.3765C94.2822 78.4608 94.1859 78.521 94.0776 78.5692C93.9632 78.6173 93.8488 78.6354 93.7224 78.6354C93.5959 78.6354 93.4816 78.6113 93.3672 78.5692C93.2528 78.521 93.1565 78.4608 93.0782 78.3765C92.9939 78.2983 92.9337 78.202 92.8856 78.0876C92.8374 77.9792 92.8193 77.8588 92.8193 77.7384Z" fill="white"/>
<path d="M101.103 73.464C101.103 73.1449 101.163 72.868 101.283 72.6332C101.404 72.3984 101.572 72.1997 101.783 72.0372C101.994 71.8807 102.24 71.7603 102.523 71.682C102.806 71.6037 103.107 71.5676 103.426 71.5676C103.746 71.5676 104.047 71.6037 104.329 71.682C104.612 71.7603 104.859 71.8807 105.064 72.0372C105.275 72.1937 105.443 72.3924 105.564 72.6332C105.684 72.874 105.75 73.1509 105.75 73.464C105.75 73.8432 105.648 74.1623 105.443 74.4272C105.239 74.6921 104.95 74.8847 104.576 74.9931V75.0112C104.998 75.1195 105.317 75.3182 105.54 75.6072C105.762 75.8961 105.877 76.2573 105.877 76.6848C105.877 77.0159 105.81 77.3109 105.678 77.5637C105.546 77.8166 105.365 78.0273 105.136 78.1898C104.907 78.3584 104.649 78.4788 104.354 78.5631C104.059 78.6473 103.752 78.6895 103.432 78.6895C103.113 78.6895 102.806 78.6473 102.511 78.5631C102.216 78.4788 101.958 78.3524 101.729 78.1898C101.5 78.0212 101.319 77.8166 101.187 77.5637C101.055 77.3109 100.988 77.0159 100.988 76.6848C100.988 76.2573 101.097 75.8961 101.325 75.6072C101.548 75.3182 101.867 75.1195 102.289 75.0112V74.9931C101.915 74.8847 101.626 74.6921 101.422 74.4272C101.217 74.1623 101.115 73.8372 101.115 73.464H101.103ZM102.457 76.4801C102.457 76.7209 102.548 76.9256 102.722 77.0941C102.897 77.2627 103.137 77.347 103.426 77.347C103.715 77.347 103.956 77.2627 104.137 77.0941C104.317 76.9256 104.402 76.7209 104.402 76.4801C104.402 76.2393 104.311 76.0286 104.137 75.86C103.962 75.6914 103.721 75.6072 103.426 75.6072C103.131 75.6072 102.897 75.6914 102.722 75.86C102.548 76.0286 102.457 76.2393 102.457 76.4801ZM102.578 73.6687C102.578 73.8854 102.656 74.066 102.812 74.2165C102.969 74.367 103.174 74.4392 103.432 74.4392C103.691 74.4392 103.896 74.367 104.053 74.2165C104.209 74.066 104.287 73.8854 104.287 73.6687C104.287 73.4519 104.209 73.2834 104.053 73.1329C103.896 72.9824 103.691 72.9101 103.432 72.9101C103.174 72.9101 102.969 72.9884 102.812 73.1329C102.656 73.2834 102.578 73.458 102.578 73.6687Z" fill="white"/>
<path d="M106.485 73.464C106.485 73.1449 106.546 72.868 106.666 72.6332C106.786 72.3984 106.955 72.1997 107.166 72.0372C107.376 71.8807 107.623 71.7603 107.906 71.682C108.189 71.6037 108.49 71.5676 108.809 71.5676C109.128 71.5676 109.429 71.6037 109.712 71.682C109.995 71.7603 110.242 71.8807 110.447 72.0372C110.657 72.1937 110.826 72.3924 110.946 72.6332C111.067 72.874 111.133 73.1509 111.133 73.464C111.133 73.8432 111.031 74.1623 110.826 74.4272C110.621 74.6921 110.332 74.8847 109.959 74.9931V75.0112C110.381 75.1195 110.7 75.3182 110.922 75.6072C111.145 75.8961 111.259 76.2573 111.259 76.6848C111.259 77.0159 111.193 77.3109 111.061 77.5637C110.928 77.8166 110.748 78.0273 110.519 78.1898C110.29 78.3584 110.031 78.4788 109.736 78.5631C109.441 78.6473 109.134 78.6895 108.815 78.6895C108.496 78.6895 108.189 78.6473 107.894 78.5631C107.599 78.4788 107.34 78.3524 107.112 78.1898C106.883 78.0212 106.702 77.8166 106.57 77.5637C106.437 77.3109 106.371 77.0159 106.371 76.6848C106.371 76.2573 106.479 75.8961 106.708 75.6072C106.931 75.3182 107.25 75.1195 107.671 75.0112V74.9931C107.298 74.8847 107.009 74.6921 106.805 74.4272C106.6 74.1623 106.498 73.8372 106.498 73.464H106.485ZM107.84 76.4801C107.84 76.7209 107.93 76.9256 108.105 77.0941C108.279 77.2627 108.52 77.347 108.809 77.347C109.098 77.347 109.339 77.2627 109.52 77.0941C109.7 76.9256 109.785 76.7209 109.785 76.4801C109.785 76.2393 109.694 76.0286 109.52 75.86C109.345 75.6914 109.104 75.6072 108.809 75.6072C108.514 75.6072 108.279 75.6914 108.105 75.86C107.93 76.0286 107.84 76.2393 107.84 76.4801ZM107.96 73.6687C107.96 73.8854 108.039 74.066 108.195 74.2165C108.352 74.367 108.556 74.4392 108.815 74.4392C109.074 74.4392 109.279 74.367 109.435 74.2165C109.592 74.066 109.67 73.8854 109.67 73.6687C109.67 73.4519 109.592 73.2834 109.435 73.1329C109.279 72.9824 109.074 72.9101 108.815 72.9101C108.556 72.9101 108.352 72.9884 108.195 73.1329C108.039 73.2834 107.96 73.458 107.96 73.6687Z" fill="white"/>
<path d="M115.179 73.0244H111.741V71.6819H116.834V72.9642L114.053 78.575H112.331L115.179 73.0244V73.0244Z" fill="white"/>
<path d="M79.8039 77.1724V75.7697H82.82V74.367H79.8039V73.0908H83.0126V71.676H77.7991V73.0908H78.2687V77.2025H77.751V78.5751H83.1752V77.1724H79.8039Z" fill="white"/>
<path d="M99.6764 77.2024V71.6819H98.2977L96.9854 72.7294L97.8222 73.6866L98.2616 73.3194V77.2024H97.3706V78.575H100.585V77.2024H99.6764Z" fill="white"/>
</g>
<defs>
<clipPath id="clip0_95_66674">
<rect width="124.497" height="83" fill="white" transform="translate(0 0.565918)"/>
</clipPath>
</defs>
</svg>
