<svg width="84" height="83" viewBox="0 0 84 83" fill="none" xmlns="http://www.w3.org/2000/svg">
<path d="M41.0419 0.0287659C48.5888 -0.255159 56.2089 1.56745 62.785 5.28595C68.0971 8.25342 72.7315 12.4115 76.2668 17.3573C79.1519 21.3872 81.3134 25.93 82.5864 30.7201C84.8304 39.0821 84.3999 48.1402 81.3134 56.2367C78.7031 63.1424 74.1878 69.3155 68.4177 73.9132C62.4553 78.7125 55.1374 81.799 47.5355 82.6966C42.9011 83.2553 38.1752 83.0446 33.614 82.0463C28.998 81.048 24.5559 79.2437 20.5444 76.7342C15.8459 73.8033 11.7335 69.9108 8.54626 65.3863C3.98515 58.9294 1.32908 51.1443 1.036 43.2402C0.852822 39.1004 1.30161 34.924 2.35487 30.9124C3.84777 25.1881 6.61374 19.7936 10.378 15.2141C14.2431 10.4882 19.1614 6.6323 24.675 4.00371C29.7765 1.57661 35.3909 0.202784 41.0419 0.0287659Z" fill="black"/>
<path d="M30.7501 4.37927C38.4253 1.95217 46.8514 1.97049 54.5082 4.4617C60.8919 6.52244 66.717 10.2867 71.2414 15.2417C74.9416 19.2807 77.7809 24.1166 79.4844 29.328C82.0489 37.113 82.0672 45.7132 79.5394 53.5074C77.8267 58.8195 74.9324 63.747 71.1498 67.8501C70.7285 67.6578 70.2981 67.4838 69.8676 67.3098C72.2489 64.7544 74.3096 61.8969 75.9124 58.7829C79.6401 51.6573 80.9315 43.3044 79.6126 35.3728C78.7517 30.0515 76.7093 24.9317 73.6868 20.4714C70.2065 15.3149 65.4347 11.0378 59.9119 8.16188C53.0794 4.55329 45.1112 3.17946 37.4636 4.22357C33.2688 4.78226 29.1657 6.05534 25.3922 7.99702C21.0692 10.2043 17.1767 13.2634 14.0078 16.9452C10.8022 20.6637 8.32011 25.0142 6.78142 29.6852C4.39096 36.8932 4.25357 44.8339 6.41506 52.1244C8.0545 57.7846 11.1044 63.0143 15.1343 67.3098C14.7038 67.4929 14.2734 67.667 13.8429 67.8501C9.19936 62.8128 5.92049 56.5206 4.46423 49.8255C2.6233 41.3902 3.64909 32.3413 7.44086 24.5745C9.75805 19.7478 13.101 15.434 17.1676 11.9445C21.1242 8.54655 25.7769 5.94544 30.7501 4.37927Z" fill="white"/>
<path d="M40.7334 7.14545C41.3379 6.92564 42.0156 7.02639 42.6384 7.09966C42.5469 7.11798 42.382 7.15461 42.2904 7.17293C41.7775 7.15461 41.2555 7.17293 40.7334 7.14545Z" fill="white"/>
<path d="M47.0442 7.10889C47.1266 7.10889 47.209 7.11805 47.3006 7.11805C47.2823 7.74085 47.2915 8.36365 47.2182 8.97729C47.0167 8.95898 46.8976 8.81243 46.8152 8.64757C46.6687 8.60178 46.5221 8.56514 46.3756 8.53767C45.8352 8.45524 45.2857 8.4186 44.7361 8.39113C44.1225 8.36365 43.518 8.36365 42.9135 8.34533C42.9044 8.70253 42.8861 9.06888 42.8861 9.42608C43.7378 9.41692 44.5988 9.51767 45.4597 9.50851C45.4688 9.45355 45.5055 9.33449 45.5238 9.27038H45.826C45.8169 9.87486 45.7803 10.4702 45.7528 11.0655C45.5238 11.0472 45.4139 10.8915 45.3406 10.69C44.5072 10.5709 43.6646 10.5893 42.8219 10.5618C42.8128 11.0106 42.8036 11.4502 42.7853 11.8898C43.9118 11.899 45.0384 11.9906 46.1649 12.073C46.3389 12.0913 46.513 12.0821 46.687 12.0638C46.7786 11.8807 46.9068 11.7616 47.1174 11.7891C47.1083 12.4027 47.0716 13.0255 47.0533 13.6392C46.9617 13.63 46.8702 13.6208 46.7877 13.6208C46.7419 13.5292 46.6961 13.4377 46.6595 13.3552C45.3681 13.1537 44.0675 13.1354 42.7761 13.0805C42.0251 13.053 41.2741 13.1079 40.5322 13.0988C40.5322 13.0072 40.5414 12.9248 40.5414 12.8332C40.6696 12.7691 40.8803 12.7965 40.9077 12.6225C40.9993 11.5601 40.9902 10.4977 41.0543 9.44439C41.0634 8.79412 41.1367 8.153 41.0818 7.51188C41.0085 7.50272 40.8528 7.4844 40.7795 7.47524C40.7704 7.36533 40.752 7.25543 40.7337 7.14552C41.2558 7.173 41.7778 7.15468 42.2907 7.173C43.8294 7.20047 45.3681 7.26459 46.9068 7.38365C46.9526 7.29206 46.9984 7.20048 47.0442 7.10889Z" fill="white"/>
<path d="M34.6064 8.02458C35.0369 7.93299 35.4949 7.91467 35.9345 8.01542C35.4949 8.08869 35.0461 8.08869 34.6064 8.02458Z" fill="white"/>
<path d="M51.3672 8.36353C52.1549 8.57418 52.9517 8.80315 53.721 9.06876C53.831 9.09623 53.7668 9.23362 53.7943 9.31605C53.6386 9.33436 53.4921 9.36184 53.3455 9.38016C52.8784 10.6807 52.4388 11.9813 51.9809 13.2818C53.0799 13.639 54.1698 14.0603 55.2414 14.4908C55.4246 14.619 55.5437 14.4267 55.6627 14.3168C55.7452 14.3534 55.8367 14.3901 55.9192 14.4267C55.6627 15.0403 55.4612 15.6815 55.1865 16.2951C55.1132 16.2859 54.9758 16.2768 54.9117 16.2768C54.9209 16.1852 54.93 16.0112 54.9392 15.9287C54.3164 15.5715 53.6295 15.3426 52.9517 15.0953C51.7977 14.6557 50.607 14.3076 49.4072 13.9779C49.4439 13.8955 49.4805 13.8039 49.508 13.7215C49.6728 13.7031 49.911 13.7306 49.9568 13.52C50.3781 12.3476 50.7811 11.157 51.2024 9.98464C51.3306 9.58165 51.5138 9.20614 51.5687 8.78483C51.5046 8.75736 51.3672 8.69324 51.2939 8.65661C51.3214 8.55586 51.3397 8.46427 51.3672 8.36353Z" fill="white"/>
<path d="M44.4238 8.46438C44.4971 8.44607 44.6528 8.40943 44.7352 8.39111C45.2848 8.41859 45.8343 8.45523 46.3747 8.53765C45.7244 8.61093 45.0649 8.57429 44.4238 8.46438Z" fill="white"/>
<path d="M37.7935 11.7982C37.647 11.1296 37.07 10.6351 36.3922 10.571C36.7678 10.2229 37.07 9.70086 36.9143 9.1788C36.8044 8.67507 36.4197 8.2446 35.9068 8.13469C35.11 7.97899 34.2949 8.16217 33.5347 8.38198C32.3623 8.72086 31.2083 9.0689 30.0635 9.47189C30.091 9.56348 30.1276 9.64591 30.1642 9.73749C30.3016 9.73749 30.4482 9.73749 30.5947 9.74665C31.0252 11.3403 31.5106 12.9156 31.941 14.5001C32.0326 14.7291 31.7762 14.8207 31.6296 14.9214C31.648 15.013 31.6663 15.0954 31.6846 15.187C33.1317 14.7199 34.5788 14.262 36.0534 13.9048C36.7678 13.7216 37.5829 13.3644 37.8119 12.5951C37.8302 12.3294 37.821 12.0638 37.7935 11.7982ZM32.5181 9.85656C33.0859 9.66422 33.6629 9.4902 34.2491 9.36198C34.5238 9.30703 34.8169 9.26123 35.0734 9.37114C35.4214 9.50852 35.5496 10.0214 35.2749 10.2779C35.0917 10.516 34.7894 10.5526 34.5147 10.6259C33.9651 10.7541 33.4156 10.919 32.8661 11.0747C32.7562 10.6625 32.628 10.2687 32.5181 9.85656ZM36.0076 12.3844C35.8519 12.6958 35.5038 12.8332 35.1833 12.9065C34.6246 13.0347 34.0751 13.1995 33.5164 13.3552C33.3973 12.8973 33.2508 12.4394 33.1225 11.9814C33.7911 11.7799 34.4689 11.5509 35.165 11.441C35.4214 11.3952 35.7328 11.4227 35.9068 11.6425C36.0442 11.8532 36.1358 12.1463 36.0076 12.3844Z" fill="white"/>
<path d="M58.8867 14.1153C59.4271 13.5383 60.2147 13.1994 61.0024 13.2543C62.2938 13.2818 63.402 14.0786 64.2538 14.9854C64.6202 15.3334 64.8308 15.8829 65.362 16.0112C65.3712 16.0386 65.3987 16.1027 65.4078 16.1302C64.8766 16.4966 64.3179 16.8355 63.7409 17.1469C63.6951 16.8721 63.805 16.5698 63.6402 16.3317C63.1822 15.6356 62.5136 15.0312 61.6893 14.8297C60.4071 14.5366 59.2256 16.1485 59.8209 17.3026C60.2239 18.0536 60.9841 18.5573 61.7718 18.8412C61.9549 18.6123 62.1289 18.3833 62.303 18.1543C62.0099 17.9162 61.726 17.6323 61.3688 17.504C61.2589 17.5498 61.1581 17.614 61.0574 17.6689C60.7918 17.4766 61.0665 17.2384 61.1947 17.0553C61.4329 16.753 61.6618 16.4508 61.8908 16.1485C61.9549 16.1943 62.019 16.2401 62.0832 16.2859C62.0832 16.4325 61.9732 16.634 62.1473 16.7255C62.8617 17.2568 63.6035 17.7697 64.2813 18.3558C64.2813 18.3833 64.2813 18.4474 64.2721 18.4749C63.9424 18.9328 63.5303 19.3267 63.2005 19.7938C63.0723 19.9495 63.2097 20.1235 63.2921 20.2609C63.2555 20.3158 63.1822 20.4166 63.1456 20.4715C61.7168 20.1968 60.2972 19.6472 59.1981 18.6672C58.5662 18.0994 58.0349 17.3575 57.9525 16.4874C57.8701 15.6082 58.3005 14.7472 58.8867 14.1153Z" fill="white"/>
<path d="M19.6585 15.7914C20.2264 15.251 20.8034 14.729 21.3712 14.1978C21.4445 14.2435 21.5178 14.2985 21.6002 14.3443C21.4995 14.5641 21.3987 14.8022 21.5544 15.0221C22.3146 16.4966 23.0565 17.9804 23.8808 19.4275C24.009 19.3725 24.1372 19.3176 24.2563 19.2534C24.3295 19.3176 24.4028 19.3725 24.4761 19.4275C23.8075 20.1052 23.1023 20.7372 22.452 21.4332C22.3879 21.3691 22.3238 21.3142 22.2688 21.2501C22.2963 21.1127 22.3512 20.9845 22.397 20.8562C21.3987 20.2976 20.263 20.0319 19.2281 19.5374C19.6402 20.2701 19.9516 21.0577 20.3271 21.7996C20.4737 22.0744 20.5836 22.3675 20.7942 22.6056C20.9041 22.5598 21.014 22.4957 21.1331 22.4499C21.1972 22.5048 21.2705 22.5598 21.3438 22.6239C20.721 23.3108 20.1531 24.0527 19.5211 24.7396C19.2281 24.6663 19.4021 24.3824 19.4296 24.1809C17.8268 23.439 16.2148 22.688 14.5754 22.0194C14.4746 22.0744 14.383 22.1385 14.2914 22.1934C14.2365 22.1293 14.1907 22.0561 14.1357 21.9828C14.6212 21.3142 15.1799 20.7005 15.6927 20.0594C15.766 20.1144 15.8393 20.1693 15.9126 20.2334C15.8668 20.3525 15.7752 20.4807 15.8027 20.6181C15.9584 20.7921 16.1782 20.8837 16.3888 20.9845C17.2131 21.36 18.0649 21.6805 18.88 22.0744C18.4679 21.36 18.1565 20.5815 17.7993 19.8396C17.6436 19.5099 17.5154 19.1435 17.2314 18.9054C17.1124 18.9512 17.0025 19.0245 16.9017 19.0886C16.8284 19.0153 16.7643 18.9512 16.7002 18.8871C17.3139 18.2002 17.9367 17.5133 18.5961 16.8721C18.8251 17.037 18.6785 17.2751 18.6327 17.4949C19.7043 17.9895 20.8309 18.3834 21.9299 18.8321C21.4353 18.0262 21.069 17.1561 20.6019 16.3409C20.492 16.1669 20.4004 15.9837 20.2355 15.8555C20.089 15.8738 19.9699 15.9471 19.8417 16.0112C19.7776 15.9379 19.7226 15.8647 19.6585 15.7914Z" fill="white"/>
<path d="M68.4666 19.5924C68.3933 19.4459 68.5857 19.4001 68.6498 19.3176C69.2359 20.0045 69.8129 20.6915 70.3258 21.4333C70.2342 21.4974 70.1518 21.5524 70.0694 21.6165C69.9228 21.4883 69.7397 21.2776 69.5657 21.4883C68.2834 22.5049 66.992 23.4941 65.7373 24.5382C65.7922 24.7214 65.9571 25.0328 65.6731 25.106C65.1144 24.4191 64.6107 23.6864 63.9971 23.0453C64.0703 22.972 64.1436 22.8987 64.2169 22.8255C64.3634 22.9445 64.5558 23.1827 64.7389 22.972C65.9754 21.9829 67.2301 21.012 68.4666 20.0137C68.6314 19.9038 68.5032 19.7298 68.4666 19.5924Z" fill="white"/>
<path d="M72.0936 24.6115C72.176 24.5932 72.2585 24.5657 72.35 24.5474C72.7347 25.3075 73.1469 26.0494 73.4674 26.8371C73.3758 26.8646 73.2842 26.892 73.1927 26.9195C73.1285 26.8371 73.0644 26.7638 73.0003 26.6814C72.1028 26.9928 71.2601 27.4416 70.39 27.8171C70.0603 27.9728 69.639 28.0735 69.4925 28.449C69.3643 28.8612 69.52 29.3008 69.694 29.6763C69.8588 30.0152 70.1153 30.3816 70.5183 30.4731C71.022 30.5739 71.4891 30.2991 71.9471 30.1068C72.5973 29.8045 73.2476 29.5115 73.8887 29.1909C74.0902 29.1176 74.0261 28.8795 74.0536 28.7238C74.136 28.6963 74.2093 28.6597 74.2917 28.6322C74.6214 29.4199 74.9512 30.2075 75.2168 31.0227C75.1435 31.0501 75.0611 31.0868 74.9878 31.1143C74.887 31.0135 74.7955 30.9128 74.6947 30.8212C73.907 31.1784 73.1285 31.5539 72.3317 31.8928C71.6631 32.2042 70.8938 32.4698 70.1702 32.2133C69.3643 31.9111 68.8697 31.1509 68.5033 30.4273C68.1003 29.5573 67.7431 28.5773 67.9996 27.6247C68.0729 27.5606 68.2377 27.4965 68.1736 27.3683C68.137 27.2492 68.2194 27.1576 68.2835 27.066C68.54 26.7089 68.9155 26.4616 69.3093 26.2875C70.2435 25.8479 71.2052 25.4541 72.1394 25.0236C72.1211 24.8862 72.1119 24.7489 72.0936 24.6115Z" fill="white"/>
<path d="M12.0933 25.0327C12.1574 24.9778 12.1666 24.7854 12.2856 24.8587C12.8352 25.0419 13.3481 25.3258 13.8884 25.5548C13.8518 25.6281 13.8152 25.7013 13.7694 25.7746C13.5862 25.7929 13.3755 25.8296 13.2931 26.0219C12.6703 27.0752 12.194 28.2109 11.7361 29.3374C12.0567 29.4839 12.3772 29.6396 12.7069 29.7679C13 29.0626 13.3206 28.3574 13.6595 27.6705C13.8335 27.4324 13.458 27.2217 13.632 26.9836C14.1907 27.1851 14.7127 27.469 15.2623 27.6888C15.2348 27.7621 15.1981 27.8353 15.1707 27.9086C15.0058 27.9636 14.7585 27.9269 14.6944 28.1376C14.3555 28.8245 14.0441 29.5389 13.7602 30.2533C14.1632 30.4273 14.557 30.6013 14.9509 30.7753C15.4454 29.6396 15.9858 28.5314 16.517 27.4232C16.6361 27.2583 16.4712 27.0935 16.398 26.9561C16.4621 26.892 16.4621 26.6996 16.5903 26.7729C17.1215 26.9561 17.6161 27.2309 18.1381 27.4415C18.1198 27.5148 18.1015 27.5881 18.0832 27.6613C17.8817 27.6888 17.6894 27.7621 17.6161 27.9636C16.6819 29.6854 15.9492 31.4989 15.2531 33.3307C15.1707 33.2849 15.0974 33.2482 15.015 33.2024C15.0058 33.065 15.0058 32.9277 14.9966 32.7903C13.4396 32.1125 11.8918 31.4073 10.3348 30.7295C10.2432 30.8211 10.1608 30.9219 10.0783 31.0135C9.99591 30.9768 9.91348 30.9402 9.83105 30.9036C10.5454 29.0443 11.3697 27.2217 12.2307 25.4266C12.3406 25.28 12.1849 25.1426 12.0933 25.0327Z" fill="white"/>
<path d="M55.7447 30.2258C56.3675 30.061 57.0635 30.3907 57.3566 30.9585C57.7138 31.5997 57.6497 32.5705 56.9719 32.9643C56.1293 33.3948 54.8746 33.0101 54.609 32.0484C54.3434 31.2516 54.9112 30.3266 55.7447 30.2258Z" fill="white"/>
<path d="M75.9489 34.6036C76.0313 34.5945 76.1229 34.5853 76.2053 34.5762C76.3244 35.5379 76.4984 36.4995 76.5533 37.4704C76.4618 37.4978 76.3702 37.507 76.2786 37.5345C76.2603 37.4612 76.2236 37.333 76.1962 37.2689C75.4268 37.681 74.7124 38.2031 73.9614 38.6427C74.7765 38.9999 75.5642 39.4212 76.3977 39.7143C76.416 39.641 76.4343 39.5128 76.4434 39.4395C76.5442 39.4304 76.6449 39.4212 76.7365 39.412C76.8006 40.4012 76.8556 41.3995 76.8831 42.3887C76.6541 42.4345 76.5259 42.2788 76.416 42.1139C74.7216 42.2421 73.018 42.3246 71.3328 42.4711C71.2962 42.5627 71.2687 42.6634 71.2321 42.755C71.1405 42.755 71.0397 42.7459 70.9481 42.7459C70.9298 42.004 70.8749 41.253 70.8474 40.5111C70.9207 40.5111 71.0672 40.5019 71.1405 40.5019C71.1679 40.6027 71.2046 40.7034 71.2412 40.8133C72.5051 40.7584 73.7691 40.6393 75.033 40.5386C73.7141 39.9799 72.3769 39.467 71.0672 38.9083C72.2762 38.1115 73.4851 37.3238 74.6849 36.5178C73.4302 36.6644 72.1754 36.8018 70.9298 36.9575C70.9023 37.0857 70.8657 37.2139 70.8474 37.3513C70.7558 37.3513 70.6642 37.3605 70.5726 37.3605C70.4902 36.6552 70.3803 35.9408 70.2979 35.2264C70.5177 35.1898 70.655 35.318 70.7375 35.5012C72.3769 35.3547 74.0072 35.1349 75.6466 34.9425C75.8481 34.9517 75.8939 34.7502 75.9489 34.6036Z" fill="white"/>
<path d="M8.53042 37.1041C8.55789 36.3256 8.71359 35.5471 8.78686 34.7686C8.86014 34.7777 9.00668 34.7777 9.08911 34.7869C9.09827 34.9059 9.10742 35.025 9.11658 35.1441C10.3805 35.3547 11.6536 35.428 12.9267 35.5837C13.3846 35.6203 13.8517 35.7028 14.3097 35.7028C14.3554 35.5929 14.4012 35.4829 14.447 35.373C14.5386 35.373 14.6302 35.3822 14.7218 35.3914C14.6302 36.2157 14.5111 37.0491 14.4104 37.8734C14.3188 37.8642 14.2272 37.8642 14.1356 37.8551C14.1082 37.6994 14.0898 37.5528 14.0532 37.4063C13.5312 37.6902 13.0732 38.0749 12.6153 38.4413C11.8184 39.0732 11.0399 39.7327 10.2431 40.3646C10.5912 40.4104 10.93 40.447 11.2689 40.4562C12.1298 40.4837 12.9908 40.6211 13.8517 40.5478C13.8609 40.4745 13.8792 40.328 13.8883 40.2547C13.9891 40.2639 14.0898 40.2639 14.1906 40.273C14.1448 41.0332 14.099 41.8026 14.0715 42.5719H13.8151C13.7693 42.4712 13.7235 42.3704 13.6685 42.2697C13.2472 42.1414 12.7984 42.2055 12.368 42.1598C11.9833 42.1323 11.6078 42.1048 11.2231 42.0865C10.3713 42.0315 9.51957 42.0041 8.6678 41.9399C8.62201 41.9674 8.53042 42.0132 8.48462 42.0315C8.47546 42.0956 8.45715 42.2147 8.44799 42.2788C8.3564 42.2697 8.25565 42.2697 8.16406 42.2697C8.18238 41.1706 8.27397 40.0807 8.31976 38.9908C8.38388 38.9908 8.5121 39.0091 8.57621 39.0091C8.64032 39.1099 8.68612 39.2472 8.79602 39.3113C8.90593 39.2656 8.99752 39.2014 9.07995 39.1282C9.9134 38.4687 10.7102 37.7543 11.5803 37.1407C10.7102 37.0033 9.83097 36.9117 8.96088 36.7927C8.89677 36.9209 8.83266 37.04 8.77771 37.159C8.69528 37.1407 8.61285 37.1315 8.53042 37.1041Z" fill="white"/>
<path d="M44.2501 35.3915C44.7447 35.2724 45.2393 35.0435 45.7613 35.1259C45.8987 35.5289 45.569 35.8403 45.395 36.1609C43.3342 39.6504 41.4658 43.2406 39.3684 46.7027C39.2769 46.8767 39.1212 46.9866 38.9288 47.0324C38.7365 46.3455 38.6449 45.6403 38.5258 44.935C38.1595 42.5812 37.8756 40.2182 37.6557 37.8461C37.6283 37.5896 37.5916 37.3332 37.6191 37.0859C37.7015 36.9485 37.8664 36.9394 38.0038 36.9027C40.1103 36.4814 42.1802 35.941 44.2501 35.3915Z" fill="white"/>
<path d="M33.6631 39.1923C34.0203 38.4596 34.524 37.791 35.1743 37.2964C35.2934 38.084 35.4124 38.8717 35.504 39.6594C35.559 40.1906 35.6139 40.7401 35.4765 41.2622C34.8263 40.6211 34.3866 39.7784 33.6631 39.1923Z" fill="white"/>
<path d="M52.1728 38.4595C53.5466 38.1847 55.0304 38.3954 56.2485 39.1098C57.549 39.8425 58.529 41.0423 59.2617 42.3245C60.6081 44.7608 61.2126 47.5451 61.4232 50.3019C61.6705 53.7273 61.1668 57.226 59.8388 60.3949C59.0603 62.2267 57.9887 63.9577 56.5049 65.3041C55.296 66.394 53.7664 67.1725 52.1362 67.3465C50.4509 67.5847 48.784 66.7695 47.6392 65.5789C47.3644 65.3133 47.2087 64.837 47.4926 64.5347C47.7491 64.3333 48.0879 64.4798 48.3169 64.6447C49.1687 65.2217 50.0296 65.9269 51.1012 66.0185C51.6324 66.0551 52.2369 66.1192 52.6948 65.762C52.5391 65.6613 52.3834 65.5605 52.2094 65.5056C51.0371 65.1118 49.8556 64.5989 48.9489 63.7105C48.0422 62.8587 47.4377 61.7321 46.9522 60.5873C46.2012 58.7647 45.7891 56.8138 45.5693 54.863C45.4136 53.4067 45.3311 51.9413 45.4319 50.4759C45.5418 48.8548 45.7799 47.2245 46.3294 45.695C46.421 45.4294 46.5309 45.1546 46.705 44.9348C46.8149 44.9623 46.8881 45.0356 46.9156 45.1455C47.5567 47.0505 48.2803 48.9189 49.0771 50.7598C49.2236 51.0987 49.3885 51.4376 49.5717 51.7582C49.7915 52.097 49.6633 52.5458 49.8922 52.8847C50.2494 53.4251 51.1562 53.4434 51.5408 52.9305C51.7149 52.7473 51.8339 52.4542 52.1178 52.4267C53.4184 52.2161 54.7556 52.3168 56.0561 52.4542C56.276 53.0129 57.0453 53.3243 57.5582 52.9854C58.3184 52.4725 58.1993 51.1811 57.4025 50.769C57.1918 50.6408 56.8713 50.6682 56.7705 50.4026C55.4883 47.9114 54.3526 45.3378 53.3818 42.7C52.9696 41.5827 52.6124 40.447 52.301 39.293C52.2277 39.0182 52.1911 38.7343 52.1728 38.4595Z" fill="white"/>
<path d="M49.5531 39.8518C49.7454 39.6594 49.9378 39.4488 50.2034 39.3572C50.3591 39.3755 50.4049 39.5404 50.4415 39.6777C50.9544 41.5095 51.678 43.2772 52.4473 45.0174C53.1892 46.6476 53.9768 48.2596 54.9385 49.7616C55.195 50.1829 55.5522 50.5585 55.6804 51.0439C54.8927 51.3186 54.0409 51.282 53.2166 51.3186C52.7404 51.3095 52.2641 51.3461 51.8062 51.2454C51.5314 51.0256 51.3757 50.65 51.0185 50.5585C50.7987 50.4852 50.5972 50.6226 50.4049 50.6775C50.1301 50.3295 50.0385 49.8807 49.9011 49.4686C49.1226 46.9957 48.6647 44.4403 48.3716 41.8759C48.3533 41.6927 48.3716 41.5004 48.4632 41.3355C48.7471 40.786 49.1043 40.2822 49.5531 39.8518Z" fill="white"/>
<path d="M11.2236 42.0864C11.6083 42.1047 11.9838 42.1322 12.3685 42.1597C12.0113 42.3429 11.5534 42.3062 11.2236 42.0864Z" fill="white"/>
<path d="M27.1233 43.1673C27.2698 43.1307 27.4713 43.0024 27.6087 43.1307C27.5629 43.6344 27.398 44.1198 27.2881 44.6144C26.8393 46.5011 26.3814 48.397 25.9235 50.2929C25.8136 50.7142 25.7769 51.2179 25.4197 51.5293C25.0442 51.8499 24.7511 52.2804 24.6412 52.7749C24.4947 53.4435 24.4855 54.2129 24.861 54.8265C25.2457 55.4219 25.9235 55.7333 26.5646 55.9805C27.7278 56.4019 28.9367 56.6766 30.1274 57.0063C30.7593 57.1895 31.4096 57.3177 32.0141 57.5742C31.895 58.0046 31.7943 58.4351 31.6203 58.8473C31.5745 58.9663 31.4371 59.0121 31.3455 59.0854C30.9883 58.8198 30.6311 58.4443 30.1457 58.4901C28.9825 58.4992 27.8193 58.4626 26.6562 58.5084C26.3356 58.4901 26.0792 58.774 26.0792 59.0854C26.07 59.4884 26.0334 59.9097 26.1708 60.2944C26.3631 60.679 26.8394 60.6699 27.2057 60.6699C28.3689 60.6332 29.5229 60.7523 30.6861 60.7065C31.3363 60.6424 32.0507 60.3951 32.4263 59.8181C32.6919 59.2136 32.7743 58.545 32.9483 57.9131C33.3238 57.9039 33.6902 58.0046 34.0382 58.142C34.1756 58.1787 34.1664 58.3344 34.1664 58.4443C34.1298 60.0288 33.736 61.6132 32.9941 63.0237C32.3713 64.1594 31.5287 65.1943 30.4296 65.8904C29.4588 66.5041 28.2681 66.8246 27.1141 66.6689C26.1891 66.5407 25.4014 65.9362 24.8519 65.2127C24.6412 64.9562 24.5954 64.6173 24.6595 64.3059C25.145 64.3334 25.3373 64.8372 25.722 65.057C26.2349 65.3684 26.8577 65.7072 27.4713 65.4966C27.6179 65.4874 27.6545 65.3684 27.6453 65.2493C27.4438 65.0386 27.1691 64.9287 26.9309 64.773C25.7037 64.0403 24.7237 62.9321 24.0917 61.659C23.2216 60.0746 22.7179 58.316 22.5255 56.5209C22.3607 54.9731 22.3057 53.4069 22.4431 51.8591C22.6354 49.8624 23.1666 47.8841 24.11 46.1073C24.7878 44.8617 25.7586 43.671 27.1233 43.1673Z" fill="white"/>
<path d="M30.4843 45.1365C30.7591 44.6877 30.9881 44.184 31.4185 43.8542C31.6475 43.9642 31.7666 44.1931 31.904 44.3946C32.7741 45.7593 33.3969 47.2888 33.6716 48.8825C33.7174 49.1389 33.7815 49.5236 33.4518 49.5969C32.197 49.8533 30.924 50.009 29.6692 50.2105C29.138 50.2838 28.6068 50.4395 28.0664 50.3296C28.1855 49.7983 28.4511 49.3221 28.6709 48.8367C29.2387 47.5819 29.8341 46.3455 30.4843 45.1365Z" fill="white"/>
<path d="M70.4814 49.0564C70.0693 48.8 69.5472 48.745 69.0801 48.8549C68.4024 49.0198 67.8528 49.606 67.7338 50.2929C67.5781 51.0347 67.9169 51.859 68.5764 52.2437C69.1259 52.5734 69.8495 52.5918 70.4081 52.2803C70.976 51.9873 71.3423 51.3828 71.3698 50.7508C71.4156 50.0731 71.0676 49.3862 70.4814 49.0564ZM70.1425 51.7949C69.9227 51.5568 69.7945 51.2546 69.5747 51.0256C69.419 50.9523 69.2267 50.989 69.0618 50.9706V51.8316H68.5764V49.3404C69.1167 49.3495 69.6846 49.2488 70.2067 49.4411C70.6188 49.5968 70.747 50.1372 70.573 50.5127C70.4631 50.6959 70.2708 50.8058 70.1059 50.934C70.3257 51.2271 70.5455 51.5202 70.7379 51.8316C70.5364 51.8224 70.3349 51.8499 70.1425 51.7949Z" fill="white"/>
<path d="M69.8862 49.8257C69.6114 49.7707 69.3367 49.7891 69.0527 49.7891C69.0619 50.0364 69.0619 50.2928 69.0619 50.5401C69.3641 50.5309 69.6847 50.595 69.9686 50.4668C70.2251 50.3478 70.1884 49.8715 69.8862 49.8257Z" fill="white"/>
<path d="M68.0726 46.7117C68.6222 43.6893 68.6771 40.5753 68.1642 37.5437C67.6513 34.4297 66.5431 31.4073 64.9403 28.678C61.8171 23.3292 56.7157 19.1711 50.8448 17.2019C46.9706 15.8922 42.785 15.5167 38.7368 16.112C35.2015 16.6158 31.7761 17.8797 28.7445 19.7664C23.5789 22.9812 19.5948 28.046 17.7447 33.8436C16.3984 37.9742 16.1419 42.4437 16.9387 46.7117C14.2735 47.4903 11.6449 48.3695 9.07129 49.3953C10.5275 55.6599 13.8156 61.4667 18.4042 65.9728C18.5049 66.0736 18.6515 65.9637 18.7705 65.9453C19.8238 65.5698 20.9045 65.2401 21.967 64.8738C21.1427 63.3259 20.4832 61.6956 20.0528 60.0012C19.4391 57.6749 19.2834 55.2478 19.3384 52.8482C19.32 52.1246 18.0928 52.4177 18.1202 51.6667C17.992 48.7175 18.972 45.805 20.4924 43.3047C21.3442 41.8942 22.4157 40.5936 23.7255 39.577C22.2875 39.1191 20.8129 38.7527 19.375 38.3039C19.3567 38.0108 19.3475 37.7086 19.3475 37.4064C22.718 36.5363 26.0793 35.6204 29.4955 34.9609C30.8236 34.7228 32.1699 34.4847 33.5163 34.6037C33.8094 34.5854 34.249 34.6679 34.4138 34.3565C34.4871 33.752 34.2948 33.1566 34.1391 32.5796C34.0566 32.369 34.0017 32.0209 33.7178 32.0118C33.0675 31.9843 32.4447 32.2224 31.8219 32.3873C31.5746 33.0376 30.851 33.6054 30.1367 33.3581C29.523 33.175 29.4131 32.4239 28.9094 32.0942C28.5155 31.8103 28.0118 31.8286 27.563 31.7279C27.2882 31.6912 27.2608 31.3707 27.2791 31.16C27.334 30.5647 27.3798 29.9144 27.7645 29.4198C28.195 28.8795 28.8727 28.6139 29.523 28.4215C31.1258 28.0185 32.8019 28.1468 34.4413 28.2567C36.209 28.2109 37.9217 27.6796 39.6619 27.3957C40.1473 27.3133 40.7426 27.414 41.0265 27.8537C41.2738 28.22 41.109 28.7146 40.825 29.0077C40.4495 29.429 39.8817 29.5572 39.3963 29.7862C38.462 30.235 37.5462 30.7295 36.6486 31.2699C36.3647 31.389 36.4288 31.7279 36.4654 31.9752C36.5662 32.6071 36.6852 33.2299 36.8959 33.8344C37.2714 33.6329 37.5828 33.3398 37.9217 33.0834C39.9183 31.5538 42.0432 30.1709 44.3695 29.1817C45.5785 28.7146 46.8882 28.2658 48.1979 28.5314C48.2712 27.5972 48.0605 26.663 47.8774 25.7563C47.8407 25.4815 47.5751 25.3533 47.3461 25.2709C46.3753 24.9595 45.322 25.0053 44.3695 24.6114C42.9316 23.9886 41.5761 23.1918 40.129 22.6056C39.7168 22.4225 39.2589 22.4499 38.8284 22.5598C36.9692 22.9812 35.229 23.7871 33.4613 24.4924C33.1133 24.6114 32.9301 24.9686 32.5821 25.0877C31.1808 25.6281 29.7337 26.1501 28.2133 26.1776C27.7737 26.2051 27.2791 26.0127 27.0868 25.5914C26.9311 25.2342 27.1234 24.8038 27.4531 24.6206C28.5247 23.952 29.6604 23.3658 30.8144 22.8621C31.4097 22.5873 32.0966 22.7888 32.7103 22.5782C34.7161 21.7997 36.7219 20.9296 38.8467 20.5174C40.2114 20.261 41.5211 20.8471 42.7301 21.415C44.1955 22.1111 45.7342 22.6881 47.3553 22.8621C47.859 22.8438 48.3078 22.5324 48.8299 22.5324C49.5992 22.4957 50.5426 22.7156 50.8906 23.4941C51.6508 23.8696 52.4018 24.2726 53.1986 24.5748C53.7024 24.7671 54.2336 24.9686 54.774 24.9137C55.7814 24.8587 56.6973 24.2909 57.714 24.3184C58.1994 24.3092 58.6299 24.6114 58.9504 24.9686C59.6556 25.7929 60.1136 26.8279 60.3059 27.8903C60.4067 28.394 60.251 29.0077 59.7655 29.2458C59.2984 29.4107 58.7581 29.2092 58.4742 28.8153C58.0162 28.2292 57.9246 27.4598 57.8788 26.7363C57.8788 26.4432 57.6315 26.1868 57.3385 26.1684C56.331 26.0585 55.4059 26.6264 54.4076 26.6264C53.2078 26.6722 52.1545 25.9944 51.0188 25.738C50.7258 25.6189 50.5884 25.9578 50.6433 26.1959C50.7716 27.7346 50.9822 29.2641 51.257 30.7845C52.5575 29.9877 53.9772 29.3008 55.5158 29.1909C56.1112 29.1451 56.7431 29.1634 57.2835 29.4748C58.2727 30.0243 58.8771 31.2333 58.6482 32.3598C58.5566 32.9002 58.2727 33.3765 58.0254 33.8527C57.9429 34.0267 58.1628 34.0817 58.291 34.1275C59.6923 34.5213 61.0569 35.1624 62.1469 36.1424C62.8704 36.8019 63.4566 37.6445 63.6947 38.6153C63.7405 38.8168 63.7588 39.0733 63.5573 39.2015C63.1635 39.4488 62.6689 39.3572 62.2293 39.3755C63.5482 40.8318 64.3725 42.6635 64.9586 44.5228C65.7921 47.243 66.1676 50.1005 66.1493 52.9398C66.076 57.107 64.8945 61.2652 62.7055 64.8188C63.9969 65.1943 65.27 65.6156 66.5431 66.0461C68.6588 63.9212 70.5547 61.5674 72.0751 58.9755C73.8335 56.008 75.1433 52.7658 75.9309 49.3953C73.3573 48.3787 70.7287 47.4903 68.0726 46.7117ZM70.8661 52.4635C70.0326 53.0863 68.787 53.0314 68.0268 52.3353C67.4681 51.8315 67.1934 51.0347 67.3216 50.2929C67.4407 49.4502 68.0909 48.7175 68.9061 48.4977C69.9136 48.1863 71.0859 48.6809 71.5438 49.6243C72.0384 50.5768 71.7453 51.8499 70.8661 52.4635Z" fill="white"/>
<path d="M41.173 51.9505C41.4661 51.7398 41.7683 51.4559 42.1713 51.5108C42.3178 52.1703 42.1713 52.8389 42.1621 53.4983C42.0797 55.3392 42.1804 57.1985 42.556 59.0028C42.7574 60.0011 43.0414 60.9902 43.3528 61.9702C41.3836 61.9519 39.4145 62.0069 37.4453 62.1443C37.8575 61.1276 38.004 60.0377 38.059 58.957C39.5793 58.1235 40.5776 56.5574 40.9806 54.8996C41.2371 53.9379 41.2554 52.9396 41.173 51.9505Z" fill="white"/>
<path d="M28.9729 53.6357C30.2734 53.6815 31.5831 53.8006 32.8745 53.9838C32.8196 54.8264 32.5265 55.6232 32.2975 56.42C31.3267 56.2185 30.3742 55.9071 29.4125 55.6599C28.9912 55.5316 28.5607 55.4492 28.1577 55.2843C28.1486 55.2569 28.1303 55.2019 28.1211 55.1744C28.3043 54.9821 28.5424 54.8356 28.6889 54.6157C28.8813 54.3318 28.9088 53.9655 28.9729 53.6357Z" fill="white"/>
<path d="M63.85 68.5372C64.0973 68.4547 64.2805 68.2716 64.4637 68.0884C64.5919 68.583 64.7293 69.0775 64.8392 69.5813C64.2622 69.3615 63.6851 69.6729 63.2272 70.0117C62.8425 70.3048 62.4945 70.7536 62.5311 71.2665C62.6227 71.9717 63.2822 72.6495 64.0332 72.5396C64.7109 72.4572 65.233 71.9443 65.6635 71.4497C65.5352 71.2665 65.3979 71.0833 65.2696 70.9093C65.0407 71.0833 64.8117 71.2482 64.5827 71.4222C64.601 71.5046 64.6468 71.6695 64.6651 71.7519H64.4453C64.1431 71.4497 63.9416 71.0742 63.676 70.7444C63.7309 70.7078 63.7951 70.662 63.85 70.6162C63.9416 70.6529 64.0332 70.6895 64.1156 70.7353C64.7018 70.314 65.2696 69.8835 65.8466 69.4714C66.1489 69.8652 66.4236 70.2865 66.7534 70.6529C66.8724 70.6529 66.9915 70.6529 67.1106 70.662C67.2021 70.8177 67.0648 70.9734 67.0007 71.12C66.5702 71.8252 66.0665 72.5029 65.407 73.0067C64.8117 73.4738 64.0698 73.831 63.3005 73.776C62.348 73.7119 61.6061 72.9151 61.313 72.0633C61.0749 71.2848 61.3496 70.433 61.8809 69.8469C62.3938 69.2332 63.1081 68.8211 63.85 68.5372Z" fill="white"/>
<path d="M23.9907 70.6345C23.661 70.1308 23.0931 69.8652 22.626 69.5171C21.9116 69.0134 21.243 68.4638 20.5928 67.896C20.547 67.9418 20.4645 68.0425 20.4279 68.0883C20.492 68.1799 20.5653 68.2715 20.6294 68.3631C19.8875 69.4255 19.1273 70.4971 18.3305 71.5229C18.1565 71.4954 17.9642 71.4496 17.8359 71.6053C18.4954 72.1549 19.1548 72.7044 19.86 73.2081C20.3821 73.5836 20.9316 73.9775 21.5819 74.0691C22.2322 74.1698 22.855 73.6386 22.9832 73.0158C23.0473 72.7227 22.8916 72.4479 22.7451 72.2007C23.0565 72.164 23.3954 72.1365 23.6518 71.935C24.0273 71.642 24.2655 71.065 23.9907 70.6345ZM21.1606 72.9059C20.6202 72.7502 20.2172 72.3197 19.7593 72.0083C19.9791 71.7152 20.1898 71.413 20.4096 71.1199C20.8217 71.468 21.3071 71.7336 21.6918 72.1182C22.0124 72.4479 21.5911 73.0524 21.1606 72.9059ZM22.1314 71.4038C21.646 71.1932 21.2613 70.8268 20.84 70.5246C21.0232 70.259 21.2156 70.0025 21.4079 69.7369C21.8109 70.0666 22.2688 70.3323 22.6535 70.6894C23.0198 70.9917 22.5161 71.6053 22.1314 71.4038Z" fill="white"/>
<path d="M57.1182 72.5672C57.6861 72.2925 58.2539 71.9994 58.8218 71.7246C58.8401 71.7887 58.8584 71.8528 58.8859 71.9261C58.7851 72.0635 58.6752 72.21 58.7851 72.3749C59.2614 73.4923 59.7468 74.6097 60.2414 75.7179C60.3879 75.7728 60.6352 75.7179 60.6535 75.9285C60.0857 76.2582 59.4812 76.5238 58.895 76.8078C58.8676 76.7528 58.8218 76.6429 58.8035 76.588C58.8859 76.5147 58.9683 76.4323 59.0599 76.359C57.9608 75.8186 56.816 75.379 55.6803 74.9027C56.0192 75.7179 56.358 76.533 56.7427 77.3207C56.9076 77.3573 57.0724 77.4123 57.1549 77.5771C56.587 77.7878 56.0192 78.0076 55.4422 78.2182C55.4055 78.145 55.3689 78.0717 55.3414 77.9984C55.3872 77.9618 55.4788 77.8977 55.5246 77.861C55.1216 76.7162 54.5721 75.6263 54.105 74.4997C54.0317 74.2341 53.7203 74.1975 53.5371 74.0235C54.3522 73.7121 55.1674 73.4007 55.9825 73.0893C55.955 73.2541 55.9276 73.419 55.9001 73.5839C56.6969 73.9502 57.5212 74.2433 58.3364 74.5639C58.0799 73.9685 57.8326 73.3732 57.5578 72.787C57.3838 72.7596 57.2098 72.7321 57.1182 72.5672Z" fill="white"/>
<path d="M30.4845 73.941C30.0632 73.4831 29.4678 73.2724 28.9092 73.0343C28.0574 72.6679 27.2331 72.2192 26.3905 71.8162C26.3355 72.0177 26.4546 72.1642 26.5736 72.3107C26.3355 72.961 26.0333 73.5838 25.7677 74.2158C25.5204 74.7653 25.3097 75.3332 25.035 75.8644C24.8701 75.8919 24.6137 75.7911 24.6045 76.0384C25.1815 76.3773 25.786 76.6612 26.3905 76.936C26.4088 76.7619 26.3447 76.6062 26.2622 76.4597C26.4088 76.0476 26.6011 75.6446 26.7843 75.2507C27.0682 75.3881 27.3796 75.4889 27.6361 75.672C27.746 76.1575 27.8009 76.6612 27.8559 77.1558C27.7002 77.2199 27.5536 77.2932 27.4437 77.4031C28.1398 77.6961 28.8359 77.9984 29.5686 78.1816C29.5136 77.9892 29.4404 77.8152 29.3671 77.632C29.1473 77.1741 29.0649 76.6612 28.9549 76.1575C29.4587 76.13 30.0265 76.0384 30.3654 75.6262C30.7501 75.1775 30.9058 74.4173 30.4845 73.941ZM29.129 75.0309C28.9366 75.15 28.6893 75.0859 28.4878 75.0218C28.0207 74.8477 27.5903 74.6188 27.1415 74.4173C27.2789 74.0784 27.4254 73.7487 27.572 73.4098C28.1032 73.6663 28.6619 73.8677 29.1656 74.1608C29.5045 74.344 29.4404 74.8477 29.129 75.0309Z" fill="white"/>
<path d="M32.9205 74.5181C33.4242 74.5913 33.9188 74.7562 34.4134 74.8661C35.3018 75.0859 36.1994 75.2416 37.0969 75.3973C37.4083 75.4706 37.7106 75.3332 38.0128 75.2508C37.9212 75.727 37.8205 76.2033 37.7289 76.6796C37.6739 76.6704 37.564 76.6612 37.5091 76.6612C37.4908 76.5971 37.4541 76.4781 37.4358 76.4231C36.4467 76.2582 35.4575 76.0842 34.4775 75.8461C34.4226 76.1209 34.3676 76.3956 34.3126 76.6612C34.8164 76.7711 35.3201 76.8994 35.8239 76.9818C36.0986 77.0276 36.3459 76.8811 36.5932 76.8078C36.5016 77.2932 36.41 77.7786 36.291 78.264C36.1811 78.145 36.0803 78.0351 35.9704 77.9252C35.3568 77.7969 34.7431 77.687 34.1295 77.5405C34.0654 77.8702 33.9921 78.1999 33.928 78.5296C34.7706 78.7037 35.6132 78.896 36.465 78.9967C36.7581 79.0425 37.0237 78.896 37.2893 78.8136C37.1977 79.2898 37.0969 79.7661 36.9962 80.2424C36.9504 80.2332 36.868 80.2149 36.8222 80.2057C36.7214 80.0958 36.6207 79.9676 36.4558 79.9676C34.9721 79.7111 33.4884 79.4364 32.0596 78.9876C32.142 78.7678 32.4626 78.7678 32.4809 78.5205C32.719 77.3298 32.9846 76.1575 33.1953 74.9669C33.0762 74.8295 32.9846 74.6829 32.9205 74.5181Z" fill="white"/>
<path d="M49.6357 75.1042C50.3227 74.9394 51.0187 74.7837 51.6965 74.573C51.7056 74.6371 51.7423 74.7562 51.7606 74.8203C51.669 74.8569 51.5683 74.9027 51.4675 74.9485C51.7698 76.2491 52.0995 77.5405 52.4567 78.8319C52.5299 78.8227 52.6856 78.8044 52.7589 78.7952C52.7864 78.8777 52.8139 78.9601 52.8413 79.0425C52.1727 79.2165 51.5225 79.4363 50.8447 79.5279C50.8081 79.4547 50.7714 79.3814 50.7348 79.3173C50.8356 79.2623 50.9455 79.2074 51.0554 79.1524C50.7256 77.8885 50.4234 76.6154 50.0754 75.3607C49.9013 75.3332 49.7182 75.2874 49.6357 75.1042Z" fill="white"/>
<path d="M46.1739 75.6535C46.7235 75.5528 47.2913 75.5436 47.8408 75.4612C47.85 75.5253 47.85 75.5894 47.8592 75.6627C47.5844 75.9191 47.5203 76.3038 47.4195 76.6518C47.099 77.7234 46.7784 78.8042 46.4762 79.8849C46.5769 79.9124 46.6777 79.9399 46.7784 79.9673C46.7784 80.0223 46.7876 80.1414 46.7876 80.1963C46.0365 80.2696 45.2855 80.3154 44.5253 80.3429C44.5345 80.1322 44.6993 80.0406 44.8642 79.9673C44.6078 79.1339 44.1681 78.3829 43.8567 77.5769C43.6278 78.4012 43.2522 79.1797 43.0508 80.0131C43.2065 80.0956 43.3347 80.2146 43.4079 80.3795C42.6569 80.4161 41.9059 80.3886 41.1549 80.3978C41.1549 80.3429 41.1457 80.2238 41.1457 80.1688C41.219 80.1505 41.3472 80.1139 41.4205 80.0956C41.2373 79.2621 40.8343 78.4928 40.5687 77.6868C40.3214 77.0915 40.1932 76.4137 39.7169 75.9466C39.7078 75.9008 39.6986 75.8092 39.6895 75.7634C40.3489 75.7909 40.9992 75.7909 41.6586 75.8367C41.6586 75.8917 41.6494 76.0016 41.6494 76.0474C41.5487 76.1023 41.4571 76.1481 41.3564 76.1939C41.6037 77.0365 41.9792 77.8242 42.2814 78.6485C42.5287 77.8242 42.9317 77.0457 43.124 76.2122C43.0233 76.1206 42.9225 76.0565 42.8218 75.9924V75.8092C43.5453 75.7909 44.2689 75.7359 45.0016 75.7268C44.9466 75.91 44.8001 76.029 44.6627 76.1298C44.965 76.9541 45.3588 77.7326 45.716 78.5202C45.9541 77.6685 46.293 76.835 46.4395 75.9649C46.3113 75.9283 46.1922 75.8917 46.0732 75.855C46.1007 75.8001 46.1464 75.6993 46.1739 75.6535Z" fill="white"/>
</svg>
