<svg width="178" height="21" viewBox="0 0 178 21" fill="none" xmlns="http://www.w3.org/2000/svg">
<path d="M0 7.52895L8.38437 7.53061L13.4827 7.53149V2.41504L0 7.52895Z" fill="#FF9D28"/>
<path d="M13.4834 2.41578V20.4795L19.851 -0.000244141L13.4834 2.41578Z" fill="#68C5ED"/>
<path d="M13.483 7.53123L8.38477 7.53027L13.483 20.4785V7.53123Z" fill="#044D80"/>
<path d="M0 7.52979L9.69175 10.8538L8.38437 7.53145L0 7.52979Z" fill="#E54747"/>
<path d="M30.8872 14.7241C30.8133 14.799 30.6901 14.8924 30.5178 15.0047C30.3453 15.117 30.1208 15.2292 29.8438 15.3415C29.5668 15.4536 29.228 15.5501 28.8281 15.6315C28.4278 15.7124 27.9694 15.753 27.4523 15.753C26.4549 15.753 25.5931 15.5908 24.8668 15.2667C24.1402 14.9426 23.5401 14.4902 23.0662 13.9104C22.5921 13.3305 22.2444 12.6446 22.0229 11.8525C21.8012 11.0606 21.6904 10.1907 21.6904 9.24275C21.6904 8.29514 21.8105 7.41878 22.0506 6.61437C22.2906 5.80996 22.6507 5.11492 23.1308 4.52846C23.611 3.94245 24.2112 3.48407 24.9315 3.15342C25.6517 2.82321 26.498 2.65771 27.4707 2.65771C27.9509 2.65771 28.3848 2.70152 28.7727 2.78859C29.1605 2.87593 29.499 2.97892 29.7885 3.09729C30.0775 3.21602 30.3177 3.34042 30.5087 3.47148C30.6994 3.60235 30.8441 3.71181 30.9427 3.7988C31.0535 3.89882 31.1487 4.01719 31.229 4.15428C31.3089 4.29163 31.349 4.4413 31.349 4.6033C31.349 4.8529 31.2566 5.10224 31.072 5.35158C30.8873 5.60118 30.6842 5.8319 30.4624 6.04382C30.3148 5.89415 30.1486 5.74159 29.964 5.58554C29.7793 5.42965 29.5729 5.29257 29.3452 5.17393C29.1173 5.05555 28.8587 4.9558 28.5696 4.87458C28.2802 4.79363 27.957 4.75297 27.6001 4.75297C26.9721 4.75297 26.4459 4.88096 26.0211 5.13642C25.5964 5.39223 25.2547 5.72577 24.9962 6.13737C24.7376 6.54897 24.553 7.01976 24.4421 7.54974C24.3313 8.07998 24.2759 8.61931 24.2759 9.168C24.2759 9.75437 24.3313 10.3156 24.4421 10.8516C24.5529 11.3879 24.7436 11.862 25.0147 12.2734C25.2852 12.6849 25.6393 13.0155 26.0765 13.2648C26.5133 13.5145 27.0581 13.6391 27.7109 13.6391C28.0553 13.6391 28.3725 13.5955 28.662 13.5082C28.951 13.4209 29.2067 13.3148 29.4283 13.19C29.6499 13.0656 29.8438 12.9347 30.01 12.7973C30.1763 12.6601 30.3148 12.5418 30.4256 12.4418C30.4995 12.5292 30.5854 12.6353 30.6841 12.7598C30.7833 12.8857 30.8758 13.0169 30.9611 13.1527C31.0471 13.2901 31.1209 13.4272 31.1827 13.5641C31.2442 13.7016 31.275 13.8262 31.275 13.9382C31.275 14.1006 31.2442 14.2377 31.1827 14.3499C31.1209 14.4622 31.0225 14.587 30.8872 14.7241ZM40.4042 13.2894C40.4042 14.2806 40.5464 15.002 40.8315 15.4538C40.6086 15.5414 40.4011 15.6042 40.2092 15.6418C40.017 15.6796 39.8158 15.6983 39.6053 15.6983C39.1595 15.6983 38.8218 15.6105 38.5929 15.4348C38.3636 15.2593 38.2181 15.0084 38.1563 14.682C37.8836 14.9709 37.5245 15.2155 37.0787 15.4163C36.6328 15.6167 36.0876 15.7173 35.4437 15.7173C35.1093 15.7173 34.775 15.6703 34.4405 15.5768C34.106 15.4825 33.8025 15.3296 33.5301 15.1173C33.2575 14.9045 33.0346 14.6199 32.8613 14.2634C32.6877 13.9069 32.6011 13.4724 32.6011 12.9597C32.6011 12.3218 32.7528 11.8026 33.0564 11.4025C33.3597 11.0021 33.7406 10.6864 34.199 10.4549C34.6572 10.2238 35.1526 10.0646 35.6853 9.97679C36.2177 9.88918 36.7071 9.83306 37.153 9.8077C37.3017 9.79538 37.4471 9.78891 37.5897 9.78891H37.9891V9.44637C37.9891 8.96404 37.8619 8.62141 37.6081 8.41858C37.3542 8.21567 36.9422 8.1139 36.3727 8.1139C35.84 8.1139 35.3662 8.20177 34.9515 8.37732C34.5363 8.55322 34.1307 8.75378 33.7345 8.9796C33.5609 8.76637 33.4215 8.53119 33.3165 8.2739C33.2111 8.01686 33.1586 7.82549 33.1586 7.69985C33.1586 7.5243 33.2544 7.35496 33.4466 7.19165C33.6384 7.02886 33.9017 6.88119 34.2362 6.74944C34.5707 6.61769 34.9544 6.5112 35.3881 6.42946C35.8215 6.34798 36.2798 6.30715 36.7629 6.30715C37.4317 6.30715 37.9984 6.37631 38.4628 6.51418C38.9273 6.6524 39.3051 6.86563 39.5962 7.15405C39.887 7.44291 40.0946 7.80337 40.2185 8.23621C40.3422 8.66915 40.4043 9.17439 40.4043 9.75123L40.4042 13.2894ZM38.0261 11.1062H37.7661C37.6792 11.1062 37.5924 11.1128 37.506 11.1251C37.1961 11.1504 36.8896 11.188 36.5863 11.2379C36.2827 11.2883 36.0132 11.3761 35.7782 11.5015C35.5427 11.627 35.3509 11.7903 35.2022 11.9907C35.0535 12.1916 34.9792 12.4489 34.9792 12.7625C34.9792 13.1138 35.0782 13.4117 35.2765 13.6564C35.4745 13.9011 35.8089 14.0234 36.2798 14.0234C36.5149 14.0234 36.7379 13.9923 36.9486 13.9292C37.1591 13.8667 37.3448 13.7852 37.506 13.6847C37.6668 13.5843 37.794 13.4746 37.8868 13.3552C37.9797 13.2362 38.0261 13.1265 38.0261 13.026V11.1062ZM45.0301 7.39867C45.2275 7.16043 45.5364 6.91879 45.9561 6.67399C46.3758 6.42937 46.9068 6.30706 47.5489 6.30706C48.0059 6.30706 48.441 6.38549 48.8548 6.54224C49.2681 6.69926 49.6356 6.95341 49.9567 7.30451C50.2777 7.65596 50.5339 8.12029 50.7254 8.69721C50.9168 9.27449 51.0125 9.98352 51.0125 10.8239C51.0125 11.8025 50.9013 12.6088 50.6791 13.2423C50.4566 13.8762 50.1698 14.3781 49.8181 14.7481C49.4661 15.1182 49.074 15.3786 48.642 15.5291C48.2098 15.6796 47.7775 15.755 47.3455 15.755C46.9874 15.755 46.6755 15.7141 46.4103 15.6327C46.1446 15.5509 45.9194 15.4603 45.7342 15.3597C45.549 15.2594 45.4071 15.1592 45.3083 15.0585C45.2096 14.9582 45.1478 14.8891 45.1231 14.8514V19.4779H42.5964V6.57048C42.6586 6.55815 42.7335 6.54556 42.8211 6.53289C42.8961 6.52056 42.9834 6.51112 43.0833 6.50465C43.183 6.49844 43.3016 6.49529 43.4388 6.49529C43.8504 6.49529 44.1999 6.56436 44.487 6.70232C44.774 6.84054 44.9552 7.07248 45.0301 7.39867ZM48.3743 10.8803C48.3743 10.504 48.3435 10.1529 48.2819 9.8265C48.2204 9.5004 48.1188 9.21801 47.9772 8.9796C47.8355 8.74136 47.6444 8.55611 47.4044 8.42427C47.164 8.2926 46.8717 8.22677 46.527 8.22677C46.0098 8.22677 45.6496 8.32731 45.4463 8.52787C45.2432 8.72868 45.1416 8.94839 45.1416 9.18663V13.1766C45.24 13.277 45.4152 13.3961 45.6678 13.5342C45.9204 13.6723 46.2126 13.741 46.5453 13.741C47.1735 13.741 47.6354 13.4904 47.9309 12.9883C48.2265 12.4865 48.3743 11.7837 48.3743 10.8803ZM52.9626 14.1176C52.8758 13.8667 52.8201 13.6031 52.7955 13.327C52.7705 13.0511 52.7583 12.7752 52.7583 12.4988V3.76628C52.8448 3.75395 52.9377 3.74128 53.0369 3.7286C53.1233 3.71627 53.2164 3.70692 53.3155 3.70045C53.4146 3.69424 53.5136 3.69109 53.6128 3.69109C53.8108 3.69109 54.0092 3.70989 54.2074 3.74748C54.4053 3.78516 54.585 3.86044 54.7463 3.97331C54.9071 4.08617 55.0371 4.24004 55.1363 4.43439C55.2354 4.629 55.2849 4.88315 55.2849 5.19657V6.5328H57.8861V8.4338H55.2849V12.4472C55.2849 13.3224 55.6379 13.7599 56.344 13.7599C56.5173 13.7599 56.6813 13.7317 56.8363 13.6752C56.991 13.6188 57.1303 13.5561 57.2544 13.487C57.3781 13.4181 57.4866 13.3459 57.5795 13.2706C57.6724 13.1953 57.7374 13.1389 57.7745 13.1013C57.9603 13.3775 58.1026 13.6165 58.2018 13.8183C58.3008 14.0203 58.3504 14.2099 58.3504 14.387C58.3504 14.5518 58.2856 14.7134 58.1554 14.8716C58.0252 15.0298 57.8424 15.1757 57.6073 15.3086C57.3719 15.4415 57.0872 15.5491 56.7527 15.6314C56.4183 15.7138 56.0527 15.7551 55.6565 15.7551C54.8883 15.7551 54.2909 15.6043 53.8636 15.3033C53.4364 15.002 53.1359 14.6068 52.9626 14.1176ZM64.2854 13.8729C64.596 13.8729 64.8695 13.8385 65.1059 13.7693C65.3418 13.7005 65.5531 13.6158 65.7396 13.5154C65.9259 13.4151 66.0876 13.3053 66.2244 13.186C66.3611 13.067 66.4853 12.9571 66.5974 12.8565C66.7463 13.0447 66.9017 13.2865 67.0633 13.581C67.2249 13.8762 67.3057 14.1176 67.3057 14.3057C67.3057 14.5818 67.1507 14.8327 66.8413 15.0585C66.5812 15.2594 66.2124 15.4319 65.736 15.576C65.2589 15.7203 64.6983 15.7925 64.0545 15.7925C63.4721 15.7925 62.8993 15.7173 62.336 15.5666C61.7724 15.4162 61.2706 15.1526 60.8311 14.7761C60.3912 14.3999 60.0352 13.895 59.7627 13.2612C59.4902 12.6276 59.354 11.828 59.354 10.8616C59.354 10.071 59.4749 9.39068 59.7162 8.81961C59.9578 8.2488 60.2797 7.77513 60.6826 7.39867C61.0848 7.0223 61.5399 6.74647 62.0479 6.57057C62.5557 6.3951 63.076 6.30706 63.6087 6.30706C64.3022 6.30706 64.8905 6.41713 65.3736 6.63649C65.8567 6.8561 66.2496 7.15108 66.5533 7.52106C66.8566 7.89114 67.0764 8.31464 67.2128 8.79137C67.3489 9.26837 67.4172 9.77002 67.4172 10.297V10.5604C67.4172 10.6611 67.4141 10.7675 67.4079 10.8803C67.4015 10.9934 67.3955 11.1034 67.3894 11.2098C67.383 11.3166 67.3737 11.4011 67.3616 11.4639H61.8808C61.9304 12.154 62.1417 12.7279 62.5145 13.186C62.8871 13.6441 63.4775 13.8729 64.2854 13.8729ZM65.132 10.0522C65.132 9.45004 65.0166 8.96072 64.7863 8.58435C64.5558 8.20798 64.1414 8.01966 63.5438 8.01966C63.0327 8.01966 62.6249 8.19853 62.3198 8.55611C62.0144 8.91377 61.8621 9.41245 61.8621 10.0522H65.132ZM71.8143 7.44623C71.8885 7.33424 71.9875 7.20983 72.1115 7.07274C72.2352 6.93575 72.387 6.81134 72.5667 6.69935C72.7461 6.58735 72.9443 6.49381 73.1612 6.41914C73.3777 6.34439 73.6101 6.30706 73.858 6.30706C74.0065 6.30706 74.1645 6.31974 74.3316 6.3444C74.4989 6.3694 74.6536 6.41617 74.7961 6.48445C74.9384 6.55299 75.0532 6.6461 75.1398 6.76439C75.2264 6.88259 75.2699 7.02877 75.2699 7.20283C75.2699 7.47665 75.2016 7.79104 75.0656 8.14599C74.929 8.5012 74.793 8.80405 74.6568 9.05487C74.4461 8.87932 74.2355 8.74442 74.0251 8.65027C73.8144 8.5562 73.5667 8.50907 73.2819 8.50907C72.898 8.50907 72.576 8.62237 72.3159 8.84872C72.0556 9.07524 71.9257 9.34574 71.9257 9.6603V15.7529H69.3991V6.57048C69.4608 6.55815 69.5351 6.54556 69.622 6.53289C69.6963 6.52056 69.7829 6.51112 69.8821 6.50465C69.9811 6.49844 70.0986 6.49529 70.2351 6.49529C70.6313 6.49529 70.9749 6.5731 71.2661 6.72855C71.557 6.88373 71.7399 7.1231 71.8143 7.44623ZM78.998 7.44623C79.0723 7.33424 79.1713 7.20983 79.2952 7.07274C79.4189 6.93575 79.5708 6.81134 79.7505 6.69935C79.9299 6.58735 80.1281 6.49381 80.345 6.41914C80.5616 6.34439 80.7937 6.30706 81.0417 6.30706C81.1902 6.30706 81.3482 6.31974 81.5153 6.3444C81.6825 6.3694 81.8373 6.41617 81.9798 6.48445C82.1222 6.55299 82.2367 6.6461 82.3236 6.76439C82.4101 6.88259 82.4537 7.02877 82.4537 7.20283C82.4537 7.47665 82.3854 7.79104 82.2493 8.14599C82.1127 8.5012 81.9766 8.80405 81.8405 9.05487C81.6299 8.87932 81.4192 8.74442 81.2088 8.65027C80.9982 8.5562 80.7505 8.50907 80.4657 8.50907C80.0817 8.50907 79.7597 8.62237 79.4996 8.84872C79.2395 9.07524 79.1095 9.34574 79.1095 9.6603V15.7529H76.5828V6.57048C76.6447 6.55815 76.719 6.54556 76.8058 6.53289C76.8801 6.52056 76.9668 6.51112 77.0658 6.50465C77.1648 6.49844 77.2824 6.49529 77.4187 6.49529C77.8151 6.49529 78.1588 6.5731 78.4498 6.72855C78.7407 6.88373 78.9235 7.1231 78.998 7.44623ZM91.0556 13.2894C91.0556 14.2806 91.198 15.002 91.4828 15.4538C91.2602 15.5414 91.0522 15.6042 90.8606 15.6418C90.669 15.6796 90.467 15.6983 90.2573 15.6983C89.8111 15.6983 89.4737 15.6105 89.2441 15.4348C89.0145 15.2593 88.8695 15.0084 88.8074 14.682C88.5355 14.9709 88.1757 15.2155 87.7303 15.4163C87.2841 15.6167 86.7387 15.7173 86.0952 15.7173C85.7608 15.7173 85.4264 15.6703 85.0919 15.5768C84.7575 15.4825 84.4538 15.3296 84.1816 15.1173C83.909 14.9045 83.6861 14.6199 83.5127 14.2634C83.3392 13.9069 83.2527 13.4724 83.2527 12.9597C83.2527 12.3218 83.4042 11.8026 83.708 11.4025C84.0112 11.0021 84.3922 10.6864 84.8505 10.4549C85.3086 10.2238 85.804 10.0646 86.3365 9.97679C86.869 9.88918 87.3584 9.83306 87.8045 9.8077C87.953 9.79538 88.0988 9.78891 88.2412 9.78891H88.6408V9.44637C88.6408 8.96404 88.5131 8.62141 88.2594 8.41858C88.0056 8.21567 87.594 8.1139 87.0244 8.1139C86.4919 8.1139 86.0178 8.20177 85.6029 8.37732C85.1878 8.55322 84.7823 8.75378 84.386 8.9796C84.2125 8.76637 84.0729 8.53119 83.9679 8.2739C83.8627 8.01686 83.8101 7.82549 83.8101 7.69985C83.8101 7.5243 83.9059 7.35496 84.0981 7.19165C84.2899 7.02886 84.5532 6.88119 84.8876 6.74944C85.2221 6.61769 85.6059 6.5112 86.0395 6.42946C86.4729 6.34798 86.9312 6.30715 87.4145 6.30715C88.0833 6.30715 88.6495 6.37631 89.1146 6.51418C89.579 6.6524 89.9561 6.86563 90.2478 7.15405C90.5387 7.44291 90.7458 7.80337 90.8701 8.23621C90.9935 8.66915 91.0556 9.17439 91.0556 9.75123V13.2894ZM88.6779 11.1062H88.4173C88.331 11.1062 88.2438 11.1128 88.1575 11.1251C87.8477 11.1504 87.5413 11.188 87.2375 11.2379C86.9337 11.2883 86.6645 11.3761 86.4297 11.5015C86.1942 11.627 86.0023 11.7903 85.8537 11.9907C85.705 12.1916 85.6307 12.4489 85.6307 12.7625C85.6307 13.1138 85.7297 13.4117 85.928 13.6564C86.1259 13.9011 86.4608 14.0234 86.9312 14.0234C87.1668 14.0234 87.3894 13.9923 87.6 13.9292C87.8106 13.8667 87.9961 13.7852 88.1575 13.6847C88.3181 13.5843 88.4458 13.4746 88.5381 13.3552C88.6313 13.2362 88.6779 13.1265 88.6779 13.026V11.1062Z" fill="#030303"/>
<line x1="102.094" y1="1.33228" x2="102.094" y2="19.1475" stroke="#030303" stroke-width="0.7423"/>
<path d="M117.288 5.03147C117.367 4.89316 117.565 4.89316 117.644 5.03147L119.353 8.00386C119.382 8.05452 119.431 8.09045 119.488 8.10286L122.806 8.83086C122.961 8.86473 123.022 9.05479 122.917 9.17413L120.654 11.7392C120.615 11.7829 120.597 11.841 120.603 11.8994L120.945 15.3217C120.961 15.481 120.801 15.5984 120.656 15.5338L117.549 14.1468C117.496 14.1231 117.436 14.1231 117.383 14.1468L114.276 15.5338C114.131 15.5984 113.971 15.481 113.987 15.3217L114.329 11.8994C114.335 11.841 114.317 11.7829 114.278 11.7392L112.015 9.17413C111.91 9.05479 111.971 8.86473 112.126 8.83086L115.444 8.10286C115.501 8.09045 115.55 8.05452 115.579 8.00386L117.288 5.03147Z" fill="#030303"/>
<path d="M131.046 5.03172C131.125 4.8934 131.322 4.8934 131.402 5.03172L133.111 8.0041C133.14 8.05477 133.189 8.0907 133.246 8.10311L136.564 8.8311C136.719 8.86498 136.78 9.05504 136.674 9.17438L134.412 11.7394C134.373 11.7831 134.355 11.8413 134.361 11.8996L134.703 15.3219C134.718 15.4812 134.559 15.5987 134.414 15.5341L131.307 14.147C131.254 14.1234 131.194 14.1234 131.141 14.147L128.033 15.5341C127.889 15.5987 127.729 15.4812 127.745 15.3219L128.087 11.8996C128.093 11.8413 128.074 11.7831 128.036 11.7394L125.773 9.17438C125.668 9.05504 125.729 8.86498 125.883 8.8311L129.202 8.10311C129.259 8.0907 129.308 8.05477 129.337 8.0041L131.046 5.03172Z" fill="#030303"/>
<path d="M144.803 5.03172C144.883 4.8934 145.08 4.8934 145.16 5.03172L146.869 8.0041C146.898 8.05477 146.947 8.0907 147.003 8.10311L150.322 8.8311C150.477 8.86498 150.537 9.05504 150.432 9.17438L148.17 11.7394C148.131 11.7831 148.112 11.8413 148.118 11.8996L148.46 15.3219C148.476 15.4812 148.317 15.5987 148.172 15.5341L145.065 14.147C145.012 14.1234 144.951 14.1234 144.899 14.147L141.791 15.5341C141.647 15.5987 141.487 15.4812 141.503 15.3219L141.845 11.8996C141.851 11.8413 141.832 11.7831 141.794 11.7394L139.531 9.17438C139.426 9.05504 139.487 8.86498 139.641 8.8311L142.96 8.10311C143.017 8.0907 143.065 8.05477 143.094 8.0041L144.803 5.03172Z" fill="#030303"/>
<path d="M158.561 5.03172C158.641 4.8934 158.838 4.8934 158.918 5.03172L160.627 8.0041C160.656 8.05477 160.705 8.0907 160.761 8.10311L164.08 8.8311C164.234 8.86498 164.295 9.05504 164.19 9.17438L161.928 11.7394C161.889 11.7831 161.87 11.8413 161.876 11.8996L162.218 15.3219C162.234 15.4812 162.075 15.5987 161.93 15.5341L158.823 14.147C158.77 14.1234 158.709 14.1234 158.656 14.147L155.549 15.5341C155.404 15.5987 155.245 15.4812 155.261 15.3219L155.603 11.8996C155.609 11.8413 155.59 11.7831 155.551 11.7394L153.289 9.17438C153.184 9.05504 153.245 8.86498 153.399 8.8311L156.718 8.10311C156.774 8.0907 156.823 8.05477 156.852 8.0041L158.561 5.03172Z" fill="#030303"/>
<mask id="mask0_1014_2458" style="mask-type:alpha" maskUnits="userSpaceOnUse" x="166" y="4" width="12" height="12">
<path d="M172.319 5.03196C172.399 4.89364 172.596 4.89364 172.675 5.03196L174.384 8.00434C174.414 8.05501 174.462 8.09094 174.519 8.10335L177.838 8.83135C177.992 8.86522 178.053 9.05528 177.948 9.17462L175.685 11.7397C175.647 11.7834 175.628 11.8415 175.634 11.8999L175.976 15.3222C175.992 15.4815 175.832 15.5989 175.688 15.5343L172.58 14.1472C172.527 14.1236 172.467 14.1236 172.414 14.1472L169.307 15.5343C169.162 15.5989 169.003 15.4815 169.019 15.3222L169.361 11.8999C169.366 11.8415 169.348 11.7834 169.309 11.7397L167.047 9.17462C166.941 9.05528 167.002 8.86522 167.157 8.83135L170.476 8.10335C170.532 8.09094 170.581 8.05501 170.61 8.00434L172.319 5.03196Z" fill="white"/>
</mask>
<g mask="url(#mask0_1014_2458)">
<rect x="166.527" y="4.92822" width="7.17949" height="10.7692" fill="#030303"/>
<path d="M169.719 11.9357L169.719 11.9357C169.735 11.7785 169.684 11.6209 169.579 11.5016C169.579 11.5015 169.579 11.5015 169.579 11.5015L167.485 9.12782L170.553 8.45499C170.709 8.42062 170.843 8.32147 170.922 8.1838L170.922 8.18379L172.497 5.44431L174.072 8.18369C174.151 8.32149 174.285 8.42063 174.442 8.45499L177.509 9.12782L175.416 11.5014C175.31 11.6207 175.26 11.7784 175.276 11.9357C175.276 11.9357 175.276 11.9358 175.276 11.9358L175.592 15.0972L172.727 13.8185C172.581 13.7532 172.414 13.7532 172.267 13.8185C172.267 13.8185 172.267 13.8185 172.267 13.8185L169.403 15.0972L169.719 11.9357ZM167.317 8.93648C167.317 8.9365 167.317 8.93651 167.317 8.93652L167.317 8.93648ZM177.678 8.93649L177.678 8.93675C177.678 8.93664 177.678 8.93653 177.678 8.93642L177.678 8.93649ZM175.835 15.2056L175.834 15.2056L175.835 15.2056ZM169.16 15.2056C169.16 15.2056 169.16 15.2055 169.16 15.2055L169.16 15.2056L169.16 15.2056Z" stroke="#030303" stroke-width="0.72"/>
</g>
</svg>
