<svg width="95" height="83" viewBox="0 0 95 83" fill="none" xmlns="http://www.w3.org/2000/svg">
<path d="M45.3296 0.0757975C50.9439 -0.338454 56.6895 0.951452 61.5562 3.79396C68.1943 7.58622 73.1485 14.1974 74.9436 21.627C76.4726 27.9216 75.7215 34.6709 73.1081 40.5782C70.6057 45.2629 67.1065 49.5166 62.5194 52.285C57.8077 55.3532 52.126 56.8384 46.5185 56.6464C43.1809 56.6969 39.8399 55.9964 36.7684 54.7133C33.6194 53.1236 30.2987 51.5946 27.867 48.9642C25.8194 47.0378 24.0849 44.7948 22.6434 42.3867C20.5014 38.0624 19.0061 33.2833 19.1139 28.42C19.0229 19.4042 23.6673 10.6308 30.8443 5.26573C32.636 4.10717 34.5085 3.06313 36.4485 2.17737C39.2741 1.01881 42.2951 0.358701 45.3296 0.0724296V0.0757975ZM41.1366 2.22115C35.0474 3.70303 29.5072 7.37404 25.8227 12.4495C22.3302 17.1746 20.5014 23.0651 20.5957 28.9353C20.7675 33.8491 22.2864 38.7056 24.937 42.8481C26.2403 44.8756 28.0152 46.5259 29.6419 48.2806C31.1238 49.8702 33.0806 50.8671 34.8891 52.0223C38.5332 53.8645 42.5612 55.1747 46.6869 55.0534C46.6869 51.763 46.7576 48.4692 46.7239 45.1754C43.9622 45.1518 41.2006 45.2023 38.4389 45.1821C35.4246 45.0642 32.6865 42.7134 32.1578 39.7396C31.9321 37.5437 32.0904 35.331 32.0432 33.125C32.0769 32.0911 31.9355 31.0133 32.2318 30.0097C32.8078 28.8006 34.3098 29.0532 35.3775 29.2654C40.1868 29.8784 44.2687 33.3069 46.6094 37.4258C46.5892 34.2735 46.5319 31.1211 46.6128 27.9688C43.8983 28.0597 41.1736 28.0631 38.4658 27.8643C37.1018 27.797 35.721 27.3895 34.6601 26.5071C32.7303 25.0387 31.8311 22.5464 31.8277 20.1788C31.7233 17.5956 31.73 15.0091 32.0432 12.4394C32.7236 12.0015 33.4409 11.4256 34.3132 11.6008C37.0614 11.9476 39.7524 12.8536 42.0055 14.5039C43.5244 13.0692 44.9524 11.4223 46.8957 10.5567C47.475 10.2469 48.1014 10.5264 48.6268 10.7958C50.3444 11.7085 51.6208 13.2106 52.9579 14.5813C54.4869 13.672 55.9688 12.5673 57.7437 12.1969C58.9595 11.9645 60.1787 11.6277 61.4248 11.6546C62.3678 11.7018 62.9909 12.6987 62.974 13.5844C62.9639 16.0329 62.9235 18.4847 63.0111 20.9332C63.102 22.4925 62.5059 24.0249 61.61 25.2812C60.4043 26.8068 58.4813 27.5814 56.6255 27.9317C53.81 28.1001 50.991 27.6858 48.1789 27.9586C48.1991 31.2255 48.1283 34.4924 48.1721 37.7559C50.6644 32.8421 55.797 29.1273 61.408 29.0936C62.1354 29.2587 62.8259 29.8682 62.7787 30.6698C62.8124 33.0004 62.9269 35.331 62.974 37.6616C63.0448 39.6419 62.4419 41.703 61.0308 43.1378C59.3973 44.9127 56.8546 45.5627 54.5139 45.3539C52.3921 45.145 50.2602 45.3269 48.1351 45.2124C48.1586 48.5399 48.2024 51.864 48.1687 55.1915C53.9178 54.9928 59.5994 52.9855 64.0956 49.3785C69.3596 45.2393 72.9565 39.0694 73.9736 32.4548C74.6034 27.6724 74.1723 22.7047 72.3065 18.2288C69.6425 11.6378 64.2437 6.22558 57.6797 3.50095C52.483 1.34213 46.5993 0.894197 41.1332 2.23125L41.1366 2.22115ZM43.3695 15.6827C45.0534 17.6899 46.7037 19.8083 47.4716 22.3511C48.3237 19.8487 49.8055 17.6125 51.6579 15.7365C50.4421 14.4163 49.2128 12.9917 47.5322 12.2541C45.8752 13.0287 44.6695 14.45 43.3661 15.686L43.3695 15.6827ZM33.6868 13.3285C33.7912 16.1003 33.616 18.8788 33.6632 21.6539C33.6295 23.8801 35.593 25.5237 37.5228 26.2377C37.7586 24.2876 37.9943 22.3073 38.7353 20.4718C39.264 18.899 40.2508 17.5451 40.9278 16.0396C39.0047 14.2345 36.3036 13.3521 33.6901 13.3251L33.6868 13.3285ZM53.7931 15.9218C55.8711 18.9461 57.1004 22.4959 57.3699 26.1568C59.559 25.6348 61.3574 23.5972 61.2867 21.3003C61.2699 18.6329 61.1992 15.9689 61.2968 13.2982C58.5857 13.342 56.0362 14.4702 53.7931 15.9218ZM48.29 26.2814C50.8227 26.4734 53.3621 26.241 55.8947 26.3993C55.7162 23.0314 54.6385 19.7342 52.6817 16.9793C49.883 19.2459 48.7817 22.8495 48.29 26.2781V26.2814ZM39.0148 26.3926C41.571 26.3959 44.1239 26.3926 46.6801 26.4027C46.5421 22.8495 44.8581 19.4951 42.2311 17.1308C40.271 19.8319 39.2404 23.0853 39.0114 26.3926H39.0148ZM34.6197 30.5587C38.513 34.6305 42.6319 38.4699 46.5488 42.5147C45.7641 38.81 43.7568 35.2973 40.6785 33.0341C38.8936 31.724 36.7314 31.111 34.6163 30.562L34.6197 30.5587ZM53.8066 33.4416C50.7688 35.5095 48.903 39.0188 48.3203 42.5922C50.2973 40.5142 52.382 38.5372 54.3623 36.4626C56.1608 34.5463 58.1647 32.8387 59.8688 30.8348C57.7201 31.34 55.5983 32.1348 53.8032 33.445L53.8066 33.4416ZM49.2633 43.7137C51.0146 43.7305 52.7659 43.6463 54.5206 43.6497C56.1675 43.5655 57.9458 43.4678 59.3401 42.4945C60.6232 41.4033 61.472 39.7362 61.3608 38.0287C61.3137 35.8867 61.3507 33.7447 61.3406 31.6061C57.2621 35.5869 53.3385 39.7295 49.2633 43.7137ZM33.5453 31.6768C33.5251 33.3237 33.7272 34.9673 33.6767 36.6175C33.7002 37.9108 33.5857 39.2681 34.1111 40.4839C34.8352 42.5316 37.0479 43.8046 39.1697 43.744C41.3353 43.6867 43.5008 43.6867 45.663 43.7541C41.6552 39.6992 37.5868 35.7048 33.5453 31.6768Z" fill="black"/>
<path d="M66.763 56.972C68.4267 56.9788 70.0938 56.9889 71.7576 56.9619C71.7677 64.7721 71.7576 72.5822 71.7677 80.389C72.549 80.4294 73.3304 80.453 74.1117 80.5237C74.0949 81.1872 74.0848 81.8541 74.078 82.5209C72.4076 82.558 70.7337 82.5445 69.0666 82.5276C69.07 81.6991 69.07 80.874 69.0801 80.0455C68.2752 81.0862 67.3523 82.1403 66.0523 82.5512C63.4422 83.5245 60.2798 82.851 58.35 80.8302C55.8779 78.2706 55.531 74.0641 57.1981 70.9859C58.808 67.9345 62.7585 66.328 66.0086 67.5573C67.3422 67.9514 68.2516 69.0527 69.0835 70.0967C69.0599 66.5032 69.0902 62.9063 69.07 59.3127C68.3223 59.3093 67.5713 59.306 66.8236 59.3093C66.7899 58.528 66.7764 57.75 66.763 56.972ZM62.287 69.7936C58.8989 71.0364 58.1512 75.7312 59.9834 78.5401C61.6067 81.1468 65.7694 81.3994 67.7801 79.1227C69.9153 76.6742 69.693 72.3903 67.0593 70.3695C65.7088 69.3794 63.8396 69.2514 62.287 69.7936Z" fill="black"/>
<path d="M3.29843 69.3402C5.71321 66.8918 10.2094 66.2013 12.7151 68.8889C12.6949 68.5656 12.6578 67.9156 12.641 67.5923C13.3819 67.5957 14.1262 67.6091 14.8705 67.6327C14.8537 69.2089 14.847 70.7817 14.8773 72.3545C14.2003 72.3747 13.5234 72.3915 12.8464 72.4084C12.3985 71.5125 12.0314 70.4516 11.0816 69.9633C8.92282 68.8249 5.84793 69.5659 4.64559 71.7617C3.16708 74.0923 3.46009 77.4468 5.5145 79.3463C6.89871 80.6698 9.03396 80.9224 10.8088 80.3533C11.762 80.0434 12.5096 79.3429 13.3684 78.8545C14.0319 79.2553 14.5405 79.8514 15.0962 80.3802C13.9376 81.495 12.5703 82.4717 10.9537 82.7647C8.60961 83.1082 5.99611 82.9937 4.06294 81.4579C0.24374 78.7266 -0.0223237 72.57 3.29843 69.3402Z" fill="black"/>
<path d="M28.2725 67.5342C29.623 66.9044 31.152 67.1671 32.4992 67.6757C32.2129 68.4234 31.9233 69.171 31.637 69.9153C30.502 69.6762 29.266 69.3158 28.1512 69.8379C26.639 70.535 25.7499 72.219 25.7566 73.8524C25.6893 76.0415 25.76 78.2273 25.7196 80.4164C26.5414 80.4131 27.3598 80.4131 28.1815 80.4131C28.1916 81.1203 28.1984 81.8276 28.2017 82.5349C25.6691 82.5618 23.133 82.545 20.597 82.5483C20.597 81.8377 20.597 81.1271 20.6004 80.4164C21.3952 80.4097 22.1934 80.4063 22.9849 80.4097C22.9849 76.87 22.9983 73.3338 22.9849 69.7975C22.1833 69.7941 21.3851 69.7907 20.5869 69.7941V67.578C22.2978 67.5713 24.0087 67.5814 25.7162 67.5847C25.723 68.4166 25.7263 69.2451 25.723 70.0804C26.3629 69.0599 27.0802 67.9687 28.2691 67.5342" fill="black"/>
<path d="M39.8226 68.175C42.8368 66.4271 47.077 66.939 49.3537 69.6536C50.8592 71.3409 51.3273 73.6445 51.4014 75.8404C47.1511 75.8774 42.9042 75.8303 38.6573 75.864C38.92 77.2953 39.4251 78.8041 40.6915 79.6562C43.1635 81.4782 46.7773 80.8518 48.9058 78.7671C49.448 79.2958 49.9903 79.8246 50.5291 80.3635C46.9928 84.1591 39.6441 83.9233 36.9868 79.2218C34.7303 75.5777 36.0236 70.2227 39.8259 68.175H39.8226ZM40.449 70.6168C39.4521 71.4015 39.0816 72.6577 38.6842 73.8062C41.978 73.7893 45.2786 74.0015 48.5656 73.7893C48.2524 72.8261 47.9897 71.7922 47.3161 71.0074C45.6827 68.9934 42.3418 68.9463 40.4524 70.6168" fill="black"/>
<path d="M83.9136 67.4615C86.7124 66.6465 89.9051 67.4919 91.9461 69.5665C94.3743 72.089 94.8425 76.2652 92.9665 79.2324C91.2354 82.1725 87.4331 83.6106 84.1595 82.7451C81.2496 82.1018 78.8247 79.6096 78.3229 76.666C78.168 74.9248 78.104 73.0422 78.9999 71.4727C79.9597 69.5059 81.8255 68.061 83.9136 67.4649V67.4615ZM83.9136 69.9201C80.9263 71.3649 80.2898 75.5647 81.8121 78.2759C83.1727 80.8489 86.975 81.5057 89.1979 79.687C91.6329 77.7572 91.9225 73.837 90.1139 71.402C88.7533 69.4789 86.0017 68.9535 83.9136 69.9201Z" fill="black"/>
</svg>
